<svg xmlns="http://www.w3.org/2000/svg" width="26.157" height="20.979" viewBox="0 0 26.157 20.979">
  <path id="icon-dash" d="M303.915,314.729a10.448,10.448,0,0,1-9.359-5.749l1.215-.616a9.127,9.127,0,1,0,.218-8.653l-1.182-.677a10.49,10.49,0,1,1,9.109,15.7Zm.681-2.861h-1.362v-1.635H304.6Zm-6.54-4.493h-7.084v-1.362h7.084Zm5.828-1.186-3.175-3.175.963-.964,2.274,2.274,3.88-3.394.9,1.025Zm7.66-1.269h-1.635v-1.362h1.635Zm-15.667-.27h-7.629v-1.362h7.629Zm2.18-2.725h-7.629v-1.362h7.629Zm6.54-3.681h-1.362v-1.635H304.6Z" transform="translate(-288.248 -293.75)" fill="currentColor"/>
</svg>
