<?xml version="1.0" encoding="utf-8"?>
<!-- Generator: Adobe Illustrator 24.2.3, SVG Export Plug-In . SVG Version: 6.00 Build 0)  -->
<svg version="1.1" xmlns="http://www.w3.org/2000/svg" xmlns:xlink="http://www.w3.org/1999/xlink" x="0px" y="0px"
	 width="25px" height="25px" viewBox="0 0 25 25" style="enable-background:new 0 0 25 25;" xml:space="preserve">
<path fill="currentColor" d="M11.344,17.32593v-6.079c0-0.63844,0.51756-1.156,1.156-1.156l0,0c0.63844,0,1.156,0.51756,1.156,1.156v6.079
	c0,0.63844-0.51756,1.156-1.156,1.156l0,0C11.86156,18.48193,11.344,17.96437,11.344,17.32593z"/>
<path fill="currentColor" d="M11.344,7.34593L11.344,7.34593c0-0.63844,0.51756-1.156,1.156-1.156l0,0c0.63844,0,1.156,0.51756,1.156,1.156l0,0
	c0,0.63844-0.51756,1.156-1.156,1.156l0,0C11.86156,8.50193,11.344,7.98438,11.344,7.34593z"/>
<path fill="currentColor" d="M12.5,2C18.28972,2,23,6.71028,23,12.5S18.28972,23,12.5,23S2,18.28972,2,12.5S6.71028,2,12.5,2 M12.5,0
	C5.60742,0,0,5.60742,0,12.5S5.60742,25,12.5,25S25,19.39258,25,12.5S19.39258,0,12.5,0L12.5,0z"/>
</svg>
