
<svg version="1.1"  xmlns="http://www.w3.org/2000/svg" xmlns:xlink="http://www.w3.org/1999/xlink" x="0px" y="0px"
	 width="21.4px" height="20.5px" viewBox="0 0 21.4 20.5" style="enable-background:new 0 0 21.4 20.5;" xml:space="preserve">
<path id="icon-users" fill="currentColor" d="M9.9,12.2c0-1.4-1.1-2.5-2.5-2.5s-2.5,1.1-2.5,2.5s1.1,2.5,2.5,2.5S9.9,13.6,9.9,12.2z M7.4,13.8
	c-0.8,0-1.5-0.7-1.5-1.5s0.7-1.5,1.5-1.5s1.5,0.7,1.5,1.5S8.2,13.8,7.4,13.8z M8.2,12.2c0,0.4-0.4,0.8-0.8,0.8
	c-0.4,0-0.8-0.4-0.8-0.8s0.4-0.8,0.8-0.8C7.8,11.5,8.2,11.8,8.2,12.2z M14.2,9.8c-1.4,0-2.5,1.1-2.5,2.5s1.1,2.5,2.5,2.5
	s2.5-1.1,2.5-2.5S15.6,9.8,14.2,9.8z M14.2,13.8c-0.8,0-1.5-0.7-1.5-1.5s0.7-1.5,1.5-1.5s1.5,0.7,1.5,1.5S15,13.8,14.2,13.8z
	 M15,12.2c0,0.4-0.4,0.8-0.8,0.8c-0.4,0-0.8-0.4-0.8-0.8s0.4-0.8,0.8-0.8C14.6,11.5,15,11.8,15,12.2z M18.8,9.1V7.7
	c0-0.6-0.5-1.2-1.2-1.2h-1.3c-0.4-0.6-1-1.1-1.5-1.5l1.3-1.8c0.1,0,0.3,0,0.4,0c0.9,0,1.6-0.7,1.6-1.6s-0.7-1.6-1.6-1.6
	c-0.9,0-1.6,0.7-1.6,1.6c0,0.4,0.1,0.7,0.4,1l-1.3,1.8c-1-0.5-2.2-0.8-3.3-0.8S8.5,4,7.5,4.5L6.2,2.8c0.3-0.3,0.4-0.6,0.4-1.1
	c0-0.9-0.7-1.6-1.6-1.6S3.5,0.8,3.5,1.7s0.7,1.6,1.6,1.6c0.1,0,0.3,0,0.4,0L6.7,5c-0.6,0.4-1.1,1-1.6,1.5H3.8C3.2,6.5,2.6,7,2.6,7.7
	v1.4c-1.2,0.3-2.5,1.3-2.5,2.6V14c0,1.3,1.3,2.3,2.5,2.6v1.1c0,1.5,1.2,2.7,2.7,2.7h10.8c1.5,0,2.7-1.2,2.7-2.7v-1.1
	c1.1-0.4,2.5-1.3,2.5-2.6v-2.3C21.3,10.5,20,9.4,18.8,9.1z M16.5,1.1c0.4,0,0.6,0.3,0.6,0.6s-0.3,0.6-0.6,0.6
	c-0.3,0-0.6-0.3-0.6-0.6S16.2,1.1,16.5,1.1z M4.5,1.7c0-0.4,0.3-0.6,0.6-0.6c0.3,0,0.6,0.3,0.6,0.6S5.4,2.3,5.1,2.3S4.5,2.1,4.5,1.7
	z M10.7,4.6c1.7,0,3.2,0.7,4.4,1.8H6.3C7.5,5.3,9,4.6,10.7,4.6z M1,14v-2.3c0-0.6,0.8-1.3,1.5-1.6v5.5C1.8,15.3,1,14.7,1,14z
	 M17.9,17.7c0,1-0.8,1.8-1.8,1.8H5.3c-1,0-1.8-0.8-1.8-1.8v-0.9V8.9V7.7c0-0.1,0.1-0.3,0.3-0.3h13.9c0.1,0,0.3,0.1,0.3,0.3v1.2v7.9
	V17.7z M20.4,14c0,0.6-0.8,1.3-1.5,1.6v-5.5c0.8,0.3,1.5,1,1.5,1.6V14z M13.2,16.8c0.1,0.3,0.1,0.5-0.2,0.6
	c-0.8,0.4-1.6,0.7-2.4,0.7c-0.8,0-1.7-0.3-2.3-0.7c-0.2-0.1-0.3-0.4-0.1-0.6c0.1-0.2,0.4-0.3,0.6-0.1c1,0.7,2.4,0.7,3.6,0
	C12.9,16.6,13.1,16.6,13.2,16.8z"/>
</svg>
