<?xml version="1.0" encoding="utf-8"?>
<!-- Generator: Adobe Illustrator 24.2.3, SVG Export Plug-In . SVG Version: 6.00 Build 0)  -->
<svg version="1.1" xmlns="http://www.w3.org/2000/svg" xmlns:xlink="http://www.w3.org/1999/xlink" x="0px" y="0px"
	 width="27.546px" height="25px" viewBox="0 0 27.546 25" style="enable-background:new 0 0 27.546 25;" xml:space="preserve">
	 
<path fill="currentColor" d="M12.799,3.84698c0-0.38101-0.017-0.724,0-1.065c-0.00664-0.48322,0.3797-0.88028,0.86292-0.88693
	c0.00235-0.00003,0.00471-0.00006,0.00708-0.00006c0.48337-0.04739,0.91547,0.30151,0.97099,0.784
	c0.02689,0.19379,0.03859,0.38937,0.035,0.58499c0.005,0.194,0,0.38699,0,0.55899c0.54004,0.13394,1.07219,0.29788,1.59399,0.491
	c2.44299,0.99597,4.04866,3.36191,4.07201,6c0.05701,0.76501,0.112,1.53201,0.217,2.29199
	c0.18469,1.35095,0.94696,2.55508,2.089,3.29999c0.38889,0.24539,0.75117,0.53061,1.08099,0.85101
	c0.73088,0.8912,0.96051,2.09201,0.61,3.19c-0.14902,0.67926-0.76863,1.15021-1.463,1.112
	c-1.28799,0.04099-2.57899,0.02399-3.868,0.02899c-0.821,0-0.821,0-1.047,0.78101c-0.68271,2.31317-3.11136,3.63495-5.42455,2.95224
	c-1.4191-0.41882-2.52959-1.52774-2.95045-2.94623c-0.228-0.78601-0.228-0.78601-1.08099-0.78601c-1.158,0-2.315,0.008-3.47301,0
	c-1.3-0.01099-1.88901-0.65399-1.95-1.94501C2.94583,17.8392,3.60269,16.5798,4.75,15.94394
	c1.3195-0.79688,2.15475-2.19925,2.22701-3.73901c0.071-0.92801,0.10001-1.862,0.23801-2.78
	c0.34666-2.76498,2.4511-4.98328,5.194-5.47501C12.52701,3.91998,12.63701,3.88998,12.799,3.84698z M22.485,19.22699
	c0.21686-0.6488-0.07132-1.35886-0.679-1.673c-1.67827-0.99854-2.80879-2.70871-3.07001-4.64401
	c-0.15199-1.10001-0.211-2.211-0.37-3.30801c-0.39346-2.54453-2.77515-4.28827-5.31967-3.89484
	C11.18047,5.99567,9.67284,7.38107,9.228,9.21597c-0.1637,0.78293-0.25905,1.57858-0.285,2.37799
	c0.00424,2.44476-1.24472,4.72116-3.30901,6.03101c-0.713,0.46201-0.8,0.745-0.58701,1.60001L22.485,19.22699z M16.151,21.15298
	h-4.8c0.23044,1.32547,1.49176,2.2132,2.81725,1.98276C15.18143,22.95959,15.97485,22.16617,16.151,21.15298z"/>
<path fill="currentColor" d="M0,9.62698c0.03824-3.50909,1.49692-6.85291,4.043-9.26801c0.283-0.271,0.617-0.48199,0.985-0.27701
	C5.28131,0.2338,5.47905,0.4631,5.592,0.73596c0.144,0.366-0.10001,0.66501-0.366,0.92099
	c-1.44907,1.33951-2.48714,3.0636-2.993,4.97101c-0.22,0.854-0.3,1.745-0.44,2.62c-0.034,0.211-0.039,0.42899-0.089,0.63599
	c-0.09775,0.45624-0.54146,0.75131-1,0.66501C0.26018,10.47995-0.05034,10.0733,0,9.62698z"/>
<path fill="currentColor" d="M27.54498,9.84c-0.05945,0.42789-0.41455,0.75317-0.84601,0.77499
	c-0.46561,0.0097-0.85904-0.34311-0.89999-0.80701c-0.16101-1.02802-0.25299-2.07401-0.505-3.07999
	c-0.50403-1.95868-1.56067-3.73114-3.04401-5.10599c-0.39664-0.28088-0.49045-0.83011-0.20956-1.22675
	c0.28088-0.39661,0.83011-0.49045,1.22675-0.20956c0.0578,0.04095,0.11047,0.08875,0.15683,0.1423
	c1.08221,1.0253,1.97699,2.23175,2.64401,3.565C26.94589,5.75919,27.44778,7.77994,27.54498,9.84z"/>
<path fill="currentColor" d="M3.498,8.733c0.22784-2.31952,1.32541-4.4668,3.07201-6.01001c0.31444-0.32974,0.83665-0.34216,1.1664-0.02771
	c0.02208,0.02106,0.04298,0.04333,0.06261,0.06671c0.33055,0.32709,0.33334,0.8602,0.00626,1.19077
	C7.77858,3.97971,7.75009,4.00485,7.72002,4.02798c-1.2356,1.14307-2.06866,2.65488-2.375,4.31
	c-0.05,0.255-0.06599,0.517-0.123,0.76999C5.15526,9.57767,4.72038,9.9043,4.25069,9.83755
	C4.2411,9.83618,4.23155,9.83466,4.22202,9.83298C3.73241,9.70889,3.41837,9.23175,3.498,8.733z"/>
<path fill="currentColor" d="M24.01302,8.93701c0.00537,0.44748-0.31885,0.8309-0.76099,0.89999
	c-0.46146,0.07318-0.8949-0.24158-0.96808-0.70303c-0.00031-0.00201-0.00061-0.004-0.00092-0.00598
	c-0.14746-0.78046-0.3374-1.55228-0.569-2.31201c-0.39944-1.0517-1.04474-1.99255-1.88199-2.74399
	c-0.38797-0.29272-0.46521-0.84451-0.17249-1.23248c0.29272-0.388,0.84451-0.46521,1.23251-0.17249
	c0.05133,0.03873,0.09827,0.08298,0.13998,0.13196C22.75948,4.39938,23.82326,6.58984,24.01302,8.93701z"/>
</svg>
