<svg xmlns="http://www.w3.org/2000/svg" width="24.889" height="22.552" viewBox="0 0 24.889 22.552">
  
  <path id="icon-team" d="M425.546,397.887a19.775,19.775,0,0,1-.352-4.757.575.575,0,0,0-.166-.438,2.118,2.118,0,0,0-2.039-.552,2.911,2.911,0,0,0-1.457,1.008,2.054,2.054,0,0,0-1.77-.332,2.932,2.932,0,0,0-1.44.978l-2.568-2.568a1.947,1.947,0,0,0-3.208.7l-.019-.02a40.944,40.944,0,0,1-5.449,1.22,1.96,1.96,0,0,0-.4,2.193,1.957,1.957,0,0,0-.823,3.255l.692.692a1.958,1.958,0,0,0-.692,3.212l5.577,5.577a6.083,6.083,0,0,0,4.35,1.749,7.21,7.21,0,0,0,3.026-.69c.076,0,.153.006.229.006a7.429,7.429,0,0,0,5.219-2.23,6.268,6.268,0,0,0,1.786-4.8A17.653,17.653,0,0,0,425.546,397.887Zm-11.743-4.71a.805.805,0,0,1,1.139-1.138l2.813,2.813a5.726,5.726,0,0,0-.276,2Zm-1.554,14.061-5.577-5.577a.8.8,0,0,1,1.138-1.138l3.172,3.171a.575.575,0,1,0,.813-.813l-5.123-5.124a.809.809,0,0,1,0-1.139.829.829,0,0,1,1.138,0l3.9,3.9a.575.575,0,0,0,.813-.813l-4.636-4.636a.805.805,0,0,1,1.139-1.139l4.636,4.636a.575.575,0,1,0,.813-.813l-3.9-3.9a.809.809,0,0,1,0-1.138.829.829,0,0,1,1.138,0l6.1,6.1a.572.572,0,0,0,.173.115.624.624,0,0,0,.063.02.555.555,0,0,0,.134.026c.012,0,.024.007.037.007a.651.651,0,0,0,.065-.008c.014,0,.028,0,.042-.005a.566.566,0,0,0,.459-.665c-.029-.162-.054-.319-.075-.474-.011-.079-.019-.156-.028-.233s-.016-.137-.022-.2c-.009-.1-.016-.2-.021-.29,0-.037,0-.075-.006-.111,0-.108-.007-.214-.007-.318,0-.016,0-.031,0-.047a4.813,4.813,0,0,1,.144-1.167c.013-.048.025-.1.04-.145s.029-.083.043-.123c.023-.065.048-.13.076-.191a1.841,1.841,0,0,1,1.161-1.087.876.876,0,0,1,.711.127,21.287,21.287,0,0,0,.276,4.208c.006.036.013.072.02.108.03.155.062.311.1.464a16.379,16.379,0,0,1,.469,3.943,5.154,5.154,0,0,1-1.448,3.985c-.137.136-.278.264-.422.386-.084.07-.172.135-.259.2-.059.045-.117.092-.177.135-.121.086-.247.167-.374.244l-.076.048q-.216.128-.442.239A5.361,5.361,0,0,1,412.249,407.239Zm11.2-1.164a6.544,6.544,0,0,1-2.5,1.572l.083-.082a6.269,6.269,0,0,0,1.786-4.8,17.651,17.651,0,0,0-.5-4.2c-.034-.145-.064-.293-.092-.441-.009-.048-.017-.1-.026-.145-.018-.1-.035-.2-.05-.3-.01-.061-.018-.122-.026-.183-.012-.087-.024-.173-.035-.259-.008-.068-.016-.135-.023-.2s-.017-.154-.024-.231-.014-.146-.02-.218-.011-.131-.016-.2c-.006-.08-.012-.16-.017-.238,0-.046-.005-.09-.007-.135-.021-.363-.031-.7-.035-1a2.065,2.065,0,0,1,1.375-1.778.874.874,0,0,1,.71.127,20.161,20.161,0,0,0,.392,4.78,16.355,16.355,0,0,1,.47,3.942A5.152,5.152,0,0,1,423.446,406.075Zm-17.9-14.476a.63.63,0,0,1-.423.185.6.6,0,0,1-.422-.152l-1.734-1.734a.575.575,0,0,1,0-.813.631.631,0,0,1,.423-.184.6.6,0,0,1,.423.152l1.734,1.734A.574.574,0,0,1,405.543,391.6Zm-.479,2.333a.631.631,0,0,1-.165.432.6.6,0,0,1-.406.195l-2.758.018h0a.575.575,0,0,1-.575-.575v-.046a.575.575,0,0,1,.571-.575l2.758-.018h0A.575.575,0,0,1,405.064,393.932Zm2.319-3.315-.2-2.751a.575.575,0,0,1,.534-.615.616.616,0,0,1,.659.529l.2,2.751a.576.576,0,0,1-.534.615l-.046,0h-.04A.575.575,0,0,1,407.383,390.617Z" transform="translate(-401.156 -387.249)" fill="currentColor"/>
</svg>
