<svg xmlns="http://www.w3.org/2000/svg" width="20.505" height="20.505" viewBox="0 0 20.505 20.505">
  <path id="icon-team" d="M227.177,34.654a.679.679,0,0,1-.679.679H207.351a.679.679,0,0,1-.679-.679V15.507a.679.679,0,1,1,1.359,0V33.974H226.5A.679.679,0,0,1,227.177,34.654Zm-16.949-5.107a2.086,2.086,0,0,1,2.084-2.084c.06,0,.12,0,.179.009l1.343-4.028a.673.673,0,0,1,.035-.078,2.087,2.087,0,1,1,3.179-1.383l3.294,1.88a2.077,2.077,0,0,1,1.469-.608h.032l1.318-3.953a2.079,2.079,0,0,1,1.232-3.753h0a2.084,2.084,0,0,1,.277,4.149,2.122,2.122,0,0,1-.213.014l-1.336,4.006a2.083,2.083,0,1,1-3.393,1.618,2.059,2.059,0,0,1,.017-.252l-3.359-1.917a2.071,2.071,0,0,1-1.23.524.694.694,0,0,1-.031.18l-1.386,4.156a2.082,2.082,0,1,1-3.509,1.516Zm13.309-11.8a.861.861,0,0,0,.852.746.9.9,0,0,0,.116-.008.861.861,0,0,0-.114-1.714.9.9,0,0,0-.116.008A.861.861,0,0,0,223.538,17.751Zm-2.588,7.588a.861.861,0,1,0,.861-.86A.861.861,0,0,0,220.95,25.339Zm-6.812-3.721a.861.861,0,1,0,.861-.861A.861.861,0,0,0,214.137,21.619Zm-2.686,7.928a.861.861,0,1,0,.861-.861A.861.861,0,0,0,211.451,29.547Z" transform="translate(-206.672 -14.828)" fill="currentColor" />
</svg>
