<svg version="1.1" id="Layer_1" xmlns="http://www.w3.org/2000/svg" xmlns:xlink="http://www.w3.org/1999/xlink" x="0px" y="0px"
	 width="20.5px" height="20.5px" viewBox="0 0 20.5 20.5" style="enable-background:new 0 0 20.5 20.5;" xml:space="preserve">
<path id="icon-notes" fill="currentColor" d="M0.6,20.5c-0.3,0-0.6-0.2-0.6-0.5c0-0.1,0-0.1,0-0.2l2.5-7c0-0.1,0.1-0.1,0.1-0.2l9.4-9.4l0.8,0.8l-8.8,8.8
	l1.4,1.4l8.8-8.8l0.8,0.8l-8.8,8.8l1.4,1.4l8.7-8.7l0.8,0.8l-9.4,9.4c-0.1,0.1-0.1,0.1-0.2,0.1l-7,2.5C0.7,20.5,0.6,20.5,0.6,20.5z
	 M2,17.5L1.5,19L3,18.5L2,17.5z M2.4,16.4l1.7,1.7l2.8-1l-3.5-3.5L2.4,16.4z M18.3,7.2c-0.1,0-0.3-0.1-0.4-0.2l-4.5-4.5
	c-0.2-0.2-0.2-0.6,0-0.8l1.2-1.2C15,0.2,15.5,0,16.1,0l0,0c0.5,0,1,0.2,1.4,0.6L19.9,3l0,0c0.8,0.8,0.8,2.1,0,2.9L18.7,7
	C18.6,7.1,18.5,7.2,18.3,7.2z M14.6,2.2l3.7,3.7l0.8-0.8c0.4-0.4,0.4-0.9,0-1.3l-2.4-2.4c-0.4-0.4-0.9-0.4-1.3,0L14.6,2.2z"/>
</svg>
