<svg id="Google__G__Logo" xmlns="http://www.w3.org/2000/svg" width="15.684" height="16" viewBox="0 0 15.684 16">
  <path id="Path_902" data-name="Path 902" d="M279.784,224.726a9.409,9.409,0,0,0-.138-1.626H272.1v3.081h4.321a3.7,3.7,0,0,1-1.6,2.431v2H277.4A7.813,7.813,0,0,0,279.784,224.726Z" transform="translate(-264.1 -216.542)" fill="#4285f4"/>
  <path id="Path_903" data-name="Path 903" d="M36.049,330.767a7.658,7.658,0,0,0,5.3-1.931l-2.578-2A4.852,4.852,0,0,1,31.56,324.3H28.9v2.061A8,8,0,0,0,36.049,330.767Z" transform="translate(-28.049 -314.767)" fill="#34a853"/>
  <path id="Path_904" data-name="Path 904" d="M3.458,155.123a4.792,4.792,0,0,1,0-3.063V150H.8a8.007,8.007,0,0,0,0,7.184Z" transform="translate(0.05 -145.59)" fill="#fbbc04"/>
  <path id="Path_905" data-name="Path 905" d="M36.049,3.148a4.347,4.347,0,0,1,3.069,1.2L41.4,2.063A7.689,7.689,0,0,0,36.049-.018,8,8,0,0,0,28.9,4.391l2.657,2.061a4.785,4.785,0,0,1,4.492-3.3Z" transform="translate(-28.049 0.018)" fill="#ea4335"/>
</svg>
