<svg version="1.1" xmlns="http://www.w3.org/2000/svg" xmlns:xlink="http://www.w3.org/1999/xlink" x="0px" y="0px" width="128px"
	 height="128px" viewBox="0 0 128 128" enable-background="new 0 0 128 128" xml:space="preserve">
	<rect fill="#8697B7" width="128" height="128"/>
	<path fill="#FFFFFF" d="M64,97.2c-4.5,0-8.8-0.9-12.9-2.6s-7.6-4.1-10.6-7.1s-5.4-6.5-7.1-10.6c-1.7-4-2.6-8.3-2.6-12.9
		c0-4.6,0.9-8.9,2.6-12.9c1.7-4,4.1-7.5,7.1-10.5s6.5-5.4,10.6-7.1c4-1.7,8.3-2.6,12.9-2.6c4.6,0,8.9,0.9,12.9,2.6
		c4,1.7,7.5,4.1,10.5,7.1s5.4,6.5,7.1,10.5s2.6,8.3,2.6,12.9c0,4.5-0.9,8.8-2.6,12.9s-4.1,7.6-7.1,10.6s-6.5,5.4-10.5,7.1
		S68.6,97.2,64,97.2z M64,90.4c1.4-2,2.7-4.1,3.7-6.2c1.1-2.2,1.9-4.5,2.6-6.9H57.7c0.7,2.4,1.5,4.7,2.6,6.9
		C61.3,86.3,62.6,88.4,64,90.4z M55.4,89c-1-1.8-1.9-3.7-2.6-5.7c-0.7-2-1.4-4-1.9-6.1h-9.8c1.6,2.8,3.6,5.2,6,7.2
		C49.5,86.5,52.3,88.1,55.4,89z M72.6,89c3.1-1,5.8-2.5,8.3-4.6s4.4-4.5,6-7.2h-9.8c-0.5,2.1-1.1,4.1-1.9,6.1S73.6,87.2,72.6,89z
		 M38.3,70.6h11.3c-0.2-1.1-0.3-2.2-0.4-3.3c-0.1-1.1-0.1-2.2-0.1-3.4c0-1.2,0-2.3,0.1-3.4c0.1-1.1,0.2-2.2,0.4-3.3H38.3
		c-0.3,1.1-0.5,2.2-0.6,3.3c-0.1,1.1-0.2,2.2-0.2,3.4c0,1.2,0.1,2.3,0.2,3.4C37.8,68.4,38,69.5,38.3,70.6z M56.2,70.6h15.6
		c0.2-1.1,0.3-2.2,0.4-3.3s0.1-2.2,0.1-3.4c0-1.2,0-2.3-0.1-3.4c-0.1-1.1-0.2-2.2-0.4-3.3H56.2c-0.2,1.1-0.3,2.2-0.4,3.3
		c-0.1,1.1-0.1,2.2-0.1,3.4c0,1.2,0,2.3,0.1,3.4C55.9,68.4,56,69.5,56.2,70.6z M78.4,70.6h11.3c0.3-1.1,0.5-2.2,0.6-3.3
		c0.1-1.1,0.2-2.2,0.2-3.4c0-1.2-0.1-2.3-0.2-3.4c-0.1-1.1-0.3-2.2-0.6-3.3H78.4c0.2,1.1,0.3,2.2,0.4,3.3c0.1,1.1,0.1,2.2,0.1,3.4
		c0,1.2,0,2.3-0.1,3.4C78.7,68.4,78.6,69.5,78.4,70.6z M77.1,50.7h9.8c-1.6-2.8-3.6-5.2-6-7.2c-2.4-2-5.2-3.6-8.3-4.6
		c1,1.8,1.9,3.7,2.6,5.7S76.6,48.6,77.1,50.7z M57.7,50.7h12.6c-0.7-2.4-1.5-4.7-2.6-6.9s-2.3-4.2-3.7-6.2c-1.4,2-2.7,4.1-3.7,6.2
		S58.4,48.3,57.7,50.7z M41.1,50.7h9.8c0.5-2.1,1.1-4.1,1.9-6.1c0.7-2,1.6-3.9,2.6-5.7c-3.1,1-5.8,2.5-8.3,4.6
		C44.7,45.6,42.7,48,41.1,50.7z"/>
</svg>
