<svg xmlns="http://www.w3.org/2000/svg" width="15.985" height="15.275" viewBox="0 0 15.985 15.275">
  <path id="social-li" d="M54.231,879.365v5.91H50.805v-5.514c0-1.385-.5-2.33-1.736-2.33a1.875,1.875,0,0,0-1.758,1.253,2.348,2.348,0,0,0-.114.835v5.756H43.771s.046-9.339,0-10.307H47.2v1.461l-.023.033H47.2v-.033a3.4,3.4,0,0,1,3.088-1.7C52.541,874.726,54.231,876.2,54.231,879.365ZM40.186,870a1.786,1.786,0,1,0-.045,3.562h.023A1.787,1.787,0,1,0,40.186,870ZM38.45,885.275h3.426V874.968H38.45Z" transform="translate(-38.246 -870)" fill="#0e67c2"/>
</svg>
