<svg xmlns="http://www.w3.org/2000/svg" width="18.931" height="15.385" viewBox="0 0 18.931 15.385">
  <path id="social-tw" d="M1384.728,1072.747a7.77,7.77,0,0,1-2.231.611,3.9,3.9,0,0,0,1.708-2.149,7.78,7.78,0,0,1-2.466.943,3.888,3.888,0,0,0-6.618,3.542,11.027,11.027,0,0,1-8.005-4.058,3.888,3.888,0,0,0,1.2,5.185,3.871,3.871,0,0,1-1.759-.486c0,.016,0,.032,0,.049a3.886,3.886,0,0,0,3.115,3.808,3.894,3.894,0,0,1-1.754.067,3.888,3.888,0,0,0,3.628,2.7,7.793,7.793,0,0,1-4.824,1.662,7.873,7.873,0,0,1-.927-.054,11.046,11.046,0,0,0,17-9.306q0-.253-.011-.5A7.9,7.9,0,0,0,1384.728,1072.747Z" transform="translate(-1365.797 -1070.926)" fill="currentColor"/>
</svg>
