<svg xmlns="http://www.w3.org/2000/svg" width="67.666" height="40.124" viewBox="0 0 67.666 40.124">
  <g id="Group_2059" data-name="Group 2059" transform="matrix(1, -0.017, 0.017, 1, -266.088, -1057.214)">
    <g id="Group_2022" data-name="Group 2022" transform="translate(247.468 1064.481)">
      <path id="Path_966" data-name="Path 966" d="M247.468,1191.653h10.39a26.613,26.613,0,0,1,11.5-21.705l-5.3-10.077C254.13,1166.27,247.468,1178.107,247.468,1191.653Z" transform="translate(-247.468 -1155.267)" fill="#fd6234"/>
      <path id="Path_967" data-name="Path 967" d="M519.273,1090.59a33.406,33.406,0,0,0-16.6,4.388l5.3,9.177a23.8,23.8,0,0,1,22.882-.491l5.017-8.689A33.406,33.406,0,0,0,519.273,1090.59Z" transform="translate(-485.712 -1090.59)" fill="#d1d1d1" opacity="0.863"/>
      <path id="Path_968" data-name="Path 968" d="M937.483,1159.819l-5.01,9.523a26.484,26.484,0,0,1,12.38,22.262h9.221C954.074,1178.056,947.409,1166.217,937.483,1159.819Z" transform="translate(-886.953 -1155.219)" fill="#d1d1d1" opacity="0.863"/>
    </g>
    <path id="Path_969" data-name="Path 969" d="M530.5,1446.605a2.382,2.382,0,0,0-.956.2l-14.847-7.038,13.424,9.491a2.393,2.393,0,1,0,2.379-2.652Z" transform="translate(-249.469 -349.257)" fill="#444"/>
    <rect id="Rectangle_2758" data-name="Rectangle 2758" width="1.317" height="20.082" transform="translate(260.792 1063.479) rotate(-30)" fill="#fff"/>
    <rect id="Rectangle_2759" data-name="Rectangle 2759" width="1.317" height="20.082" transform="translate(291.759 1080.673) rotate(-150)" fill="#fff"/>
  </g>
</svg>
