<?xml version="1.0" encoding="utf-8"?>
<!-- Generator: Adobe Illustrator 26.5.0, SVG Export Plug-In . SVG Version: 6.00 Build 0)  -->
<svg version="1.1" id="Layer_1" xmlns="http://www.w3.org/2000/svg" xmlns:xlink="http://www.w3.org/1999/xlink" x="0px" y="0px"
	 width="45.8px" height="54px" viewBox="0 0 45.8 54" enable-background="new 0 0 45.8 54" xml:space="preserve">
<g id="Group_2057" transform="translate(-642 -216.565)">
	<g id="Group_2018" transform="translate(-149.188 -389.317)">
		<g id="Group_2018_00000098912492406404897410000011747209979202563000_" transform="translate(-149.188 -389.317)">
			<path id="Path_959" fill="#3464F8" d="M940.4,1048c0,0.7,0.7,1.2,1.6,1.2h42.6c0.9,0,1.6-0.5,1.6-1.2v-29.2h-45.8L940.4,1048z"/>
			<path id="Path_960" fill="#3464F8" d="M975.9,995.2H942c-0.9,0-1.7,0.8-1.6,1.8v22.9h45.8v-13.4L975.9,995.2z"/>
			<path id="Path_961" fill="#003BD5" d="M975,1004.6c0,1,0.8,1.8,1.8,1.8l0,0h9.5l-11.2-11.2L975,1004.6z"/>
		</g>
		<g>
			<g>
				<path fill="#FFFFFF" d="M795.7,650.5c0.7-0.2,1.2-0.5,1.6-1c0.4-0.5,1.2-1.7,2.4-3.7l9.1-15.5h0.7l3,17.6
					c0.2,1.1,0.4,1.8,0.7,2.1c0.3,0.3,0.8,0.5,1.7,0.5v0.5h-7.6v-0.5c0.9-0.1,1.5-0.2,1.8-0.3c0.4-0.2,0.7-0.6,0.7-1.2
					c0-0.2,0-0.3,0-0.5c0-0.2,0-0.3,0-0.4l-0.7-4.1h-6.6l-2,3.5c-0.1,0.2-0.2,0.5-0.3,0.7c-0.2,0.5-0.3,0.9-0.3,1.2
					c0,0.4,0.1,0.7,0.4,0.8c0.3,0.2,0.7,0.3,1.4,0.3v0.5h-5.8V650.5z M808.7,642.9l-1.3-8l-4.5,8H808.7z"/>
				<path fill="#FFFFFF" d="M826.9,637.9c0.2,0.2,0.4,0.5,0.5,0.9l0.1,0.2l0.3-1.1c0-0.1,0.1-0.2,0.1-0.3c0,0,0.1-0.1,0.2-0.1
					l1.7-0.2c0.1,0,0.1,0,0.2,0.1c0,0,0,0.1,0,0.2c0,0.1-0.1,0.2-0.1,0.3c0,0.1-0.1,0.2-0.1,0.3l-1.5,5.4c-0.3,1.2-0.6,2.2-0.8,3.1
					c-0.4,1.5-0.6,2.4-0.6,2.7c0,0.1,0,0.2,0.1,0.3c0.1,0.1,0.2,0.1,0.3,0.1c0.1,0,0.2,0,0.3-0.1s0.2-0.2,0.4-0.3l0.3-0.2
					c0.1-0.1,0.2-0.2,0.3-0.2c0.1-0.1,0.2-0.2,0.4-0.4l1-1l0.4,0.3c-1.1,1.3-1.9,2.3-2.6,2.7c-0.7,0.5-1.3,0.7-1.9,0.7
					c-0.4,0-0.7-0.1-0.9-0.4c-0.2-0.3-0.3-0.6-0.3-1c0-0.4,0.1-0.9,0.2-1.6c0.1-0.7,0.3-1.3,0.4-1.7c-0.2,0.3-0.5,0.7-0.9,1.3
					s-1,1.1-1.6,1.7c-0.7,0.7-1.4,1.1-2.1,1.4c-0.5,0.2-1,0.3-1.5,0.3c-0.8,0-1.6-0.3-2.2-1c-0.7-0.7-1-1.6-1-2.9
					c0-2.1,1-4.3,2.9-6.6c2-2.4,4-3.6,6.2-3.6C825.8,637.2,826.5,637.5,826.9,637.9z M826.4,638.4c-0.3-0.3-0.7-0.5-1.2-0.5
					c-1.7,0-3.2,1.3-4.6,3.8c-1.3,2.2-1.9,4.1-1.9,5.7c0,0.8,0.2,1.4,0.5,1.8c0.3,0.4,0.8,0.6,1.3,0.6c1.5,0,3-1.2,4.4-3.7
					c1.4-2.2,2-4.3,2-6.1C826.9,639.3,826.7,638.8,826.4,638.4z"/>
			</g>
		</g>
	</g>
	<text transform="matrix(1 0 0 1 648 234.0001)" fill="#FFFFFF" font-family="'Lato-Heavy'" font-size="13px">F</text>
</g>
</svg>
