<?xml version="1.0" encoding="utf-8"?>
<!-- Generator: Adobe Illustrator 26.5.0, SVG Export Plug-In . SVG Version: 6.00 Build 0)  -->
<svg version="1.1" id="Layer_1" xmlns="http://www.w3.org/2000/svg" xmlns:xlink="http://www.w3.org/1999/xlink" x="0px" y="0px"
	 width="45.8px" height="54px" viewBox="0 0 45.8 54" enable-background="new 0 0 45.8 54" xml:space="preserve">
<g id="Group_2057" transform="translate(-642 -216.565)">
	<g id="Group_2018" transform="translate(-149.188 -389.317)">
		<path id="Path_959" fill="#39B54A" d="M791.2,658.7c0,0.7,0.7,1.2,1.6,1.2h42.6c0.9,0,1.6-0.5,1.6-1.2v-29.2h-45.8L791.2,658.7z"
			/>
		<path id="Path_960" fill="#39B54A" d="M826.7,605.9h-33.9c-0.9,0-1.7,0.8-1.6,1.8v22.9H837v-13.4L826.7,605.9z"/>
		<path id="Path_961" fill="#219331" d="M825.8,615.3c0,1,0.8,1.8,1.8,1.8l0,0h9.5l-11.2-11.2L825.8,615.3z"/>
		<g id="Group_2016" transform="translate(797.188 636.278)">
			<rect id="Rectangle_2754" x="0" y="0.2" fill="#FFFFFF" width="9.3" height="2"/>
			<rect id="Rectangle_2757" x="0" y="-6" fill="#FFFFFF" width="9.3" height="2"/>
			<rect id="Rectangle_2755" x="0" y="6.4" fill="#FFFFFF" width="9.3" height="2"/>
			<rect id="Rectangle_2756" x="0" y="12.7" fill="#FFFFFF" width="9.3" height="2"/>
			
				<rect id="Rectangle_2754_00000038396259489614525500000006403124778225977739_" x="23.6" y="0.2" fill="#FFFFFF" width="9.3" height="2"/>
			
				<rect id="Rectangle_2757_00000010288412668918427350000001557541674418907281_" x="23.6" y="-6" fill="#FFFFFF" width="9.3" height="2"/>
			
				<rect id="Rectangle_2755_00000093887330743545977620000013459034463054768311_" x="23.6" y="6.4" fill="#FFFFFF" width="9.3" height="2"/>
			
				<rect id="Rectangle_2756_00000134952823605667613150000002413742339165510273_" x="23.6" y="12.7" fill="#FFFFFF" width="9.3" height="2"/>
			
				<rect id="Rectangle_2754_00000012449035015781806770000003314773017157032621_" x="11.8" y="0.2" fill="#FFFFFF" width="9.3" height="2"/>
			
				<rect id="Rectangle_2757_00000025418540369780850940000000708294026506959029_" x="11.8" y="-6" fill="#FFFFFF" width="9.3" height="2"/>
			
				<rect id="Rectangle_2755_00000048482681747172950150000017842692880111847051_" x="11.8" y="6.4" fill="#FFFFFF" width="9.3" height="2"/>
			
				<rect id="Rectangle_2756_00000041281152929104187670000017510382042095976351_" x="11.8" y="12.7" fill="#FFFFFF" width="9.3" height="2"/>
		</g>
	</g>
	<text transform="matrix(1 0 0 1 648 234.0001)" fill="#FFFFFF" font-family="'Lato-Heavy'" font-size="13px">X</text>
</g>
</svg>
