<svg xmlns="http://www.w3.org/2000/svg" width="44" height="44" viewBox="0 0 44 44">
  <g id="Group_2063" data-name="Group 2063" transform="translate(-8 -10)">
    <circle id="Ellipse_15" data-name="Ellipse 15" cx="22" cy="22" r="22" transform="translate(8 10)" fill="#1E39A0"/>
    <g id="Group_1765" data-name="Group 1765" transform="translate(-31.108 -108.31)">
      <path id="Path_788" data-name="Path 788" d="M59.15,138.266s-12.056,13.915,3.824,19.884c0,0-14.518-.494-14.866-11.276C48.108,146.874,48.108,138,59.15,138.266Z" transform="translate(0 -4.839)" fill="#FFFFFF"/>
      <path id="Path_789" data-name="Path 789" d="M69.364,142.053s-6.928-17.058-19.454-5.617c0,0,7.031-12.713,16.8-8.13C66.706,128.307,74.608,132.332,69.364,142.053Z" transform="translate(-0.796 0)" fill="#FFFFFF"/>
      <path id="Path_790" data-name="Path 790" d="M62.5,150.564S80.7,153.309,77.254,136.7c0,0,7.347,12.533-1.577,18.593C75.677,155.291,68.183,160.034,62.5,150.564Z" transform="translate(-6.36 -4.149)" fill="#FFFFFF"/>
    </g>
  </g>
</svg>
