<svg xmlns="http://www.w3.org/2000/svg" width="69.579" height="46.5" viewBox="0 0 69.579 46.5">
  <g id="Group_2058" data-name="Group 2058" transform="translate(-336.468 -768.157)">
    <g id="Group_2024" data-name="Group 2024" transform="translate(345.678 785.013)">
      <path id="Path_970" data-name="Path 970" d="M932.418,1887.3h7.742v-22.1l-7.742-7.5Z" transform="translate(-932.398 -1857.672)" fill="#d7d7d7"/>
      <path id="Path_971" data-name="Path 971" d="M938.878,1886.053h-7.763v-29.624l-.01-.01v29.644h7.783v-22.1l-.01-.01Z" transform="translate(-931.105 -1856.419)" fill="#d7d7d7"/>
      <path id="Path_972" data-name="Path 972" d="M939.524,1886.679v-22.1l-.01-.01v22.1h-7.742v-29.6l-.01-.01v29.624Z" transform="translate(-931.752 -1857.045)" fill="#d7d7d7"/>
      <path id="Path_973" data-name="Path 973" d="M1691.534,2593.483v18.208h7.742v-17.575l-3.5,3.475Z" transform="translate(-1679.755 -2582.067)" fill="#d7d7d7"/>
      <path id="Path_974" data-name="Path 974" d="M1697.994,2610.448h-7.763V2592.22l-.01-.01v18.247H1698v-17.616l-.01.01Z" transform="translate(-1678.463 -2580.814)" fill="#d7d7d7"/>
      <path id="Path_975" data-name="Path 975" d="M1698.64,2611.075v-17.6l-.01.01v17.575h-7.742v-18.207l-.01-.01v18.228Z" transform="translate(-1679.109 -2581.441)" fill="#d7d7d7"/>
      <path id="Path_976" data-name="Path 976" d="M2450.65,1890.216v21.558h7.742v-28.312l-.021-.907Z" transform="translate(-2427.114 -1882.15)" fill="#d7d7d7"/>
      <path id="Path_977" data-name="Path 977" d="M2457.11,1970.046h-7.763v-21.558l-.01.01v21.558h7.783v-28.313l-.01-.01Z" transform="translate(-2425.821 -1940.412)" fill="#d7d7d7"/>
      <path id="Path_978" data-name="Path 978" d="M2457.756,1969.417V1941.1l-.01-.01v28.312H2450v-21.558l-.01.01v21.558Z" transform="translate(-2426.467 -1939.783)" fill="#d7d7d7"/>
      <path id="Path_979" data-name="Path 979" d="M3209.766,2195.217v24.376h7.742v-16.87l-7.713-7.506Z" transform="translate(-3174.472 -2189.97)" fill="#d7d7d7"/>
      <path id="Path_980" data-name="Path 980" d="M3216.226,2218.311h-7.762v-24.4h.029l-.01-.01h-.028v24.417h7.783v-16.871l-.01-.01Z" transform="translate(-3173.179 -2188.677)" fill="#d7d7d7"/>
      <path id="Path_981" data-name="Path 981" d="M3209.109,2218.958h7.763v-16.871l-.01-.01v16.87h-7.742v-24.376h.029l-.01-.01h-.029Z" transform="translate(-3173.825 -2189.324)" fill="#d7d7d7"/>
      <path id="Path_982" data-name="Path 982" d="M3976.623,3169.211v-7.475l-7.742-1.961v9.436Z" transform="translate(-3921.829 -3139.588)" fill="#d7d7d7"/>
      <path id="Path_983" data-name="Path 983" d="M3975.341,3161.412v7.483h-7.763v-9.449l-.01,0v9.462h7.783v-7.49Z" transform="translate(-3920.537 -3139.26)" fill="#d7d7d7"/>
      <path id="Path_984" data-name="Path 984" d="M3975.977,3169.048h-7.742v-9.436l-.01,0v9.449h7.762v-7.482l-.01,0Z" transform="translate(-3921.183 -3139.424)" fill="#d7d7d7"/>
    </g>
    <path id="Path_985" data-name="Path 985" d="M406.047,806.607l-4.2-13.978-2.912,3.095-22.915-21.561L361.7,787.893l-21.059-19.736-4.171,4.45L361.746,796.3l14.31-13.721,18.7,17.591-2.912,3.095Z" fill="#4285f4"/>
  </g>
</svg>
