<?xml version="1.0" encoding="utf-8"?>
<!-- Generator: Adobe Illustrator 26.5.0, SVG Export Plug-In . SVG Version: 6.00 Build 0)  -->
<svg version="1.1" id="Layer_1" xmlns="http://www.w3.org/2000/svg" xmlns:xlink="http://www.w3.org/1999/xlink" x="0px" y="0px"
	 width="45.8px" height="54px" viewBox="0 0 45.8 54" enable-background="new 0 0 45.8 54" xml:space="preserve">
<g id="Group_2057" transform="translate(-642 -216.565)">
	<path id="Path_959" fill="#2F81F8" d="M642,269.4c0,0.7,0.7,1.2,1.6,1.2h42.6c0.9,0,1.6-0.5,1.6-1.2v-29.2H642L642,269.4z"/>
	<path id="Path_960" fill="#2F81F8" d="M677.5,216.6h-33.9c-0.9,0-1.7,0.8-1.6,1.8v22.9h45.8v-13.4L677.5,216.6z"/>
	<path id="Path_961" fill="#035FD5" d="M676.6,226c0,1,0.8,1.8,1.8,1.8l0,0h9.5l-11.2-11.2L676.6,226z"/>
	<text transform="matrix(1 0 0 1 648 234.0001)" fill="#FFFFFF" font-family="'Lato-Heavy'" font-size="13px">IMG</text>
	<path fill="#FFFFFF" d="M657.4,253.6l3.8,3.8l8.7-8.7l10.8,10.8v-16.8c0-0.9-0.8-1.7-1.7-1.7h-29.4c-0.9,0-1.7,0.8-1.7,1.7V260
		c0,0.8,0.6,1.5,1.4,1.7L657.4,253.6z M658.9,243.6c1.9,0,3.5,1.5,3.5,3.5s-1.5,3.5-3.5,3.5s-3.5-1.5-3.5-3.5S657,243.6,658.9,243.6
		z"/>
</g>
</svg>
