<?xml version="1.0" encoding="utf-8"?>
<!-- Generator: Adobe Illustrator 25.2.0, SVG Export Plug-In . SVG Version: 6.00 Build 0)  -->
<svg version="1.1" id="Layer_1" xmlns="http://www.w3.org/2000/svg" xmlns:xlink="http://www.w3.org/1999/xlink" x="0px" y="0px"
	 width="197px" height="44px" viewBox="0 0 197 44" enable-background="new 0 0 197 44" xml:space="preserve">
<g id="Group_2064" transform="translate(-8 -10)">
	<ellipse id="Ellipse_15" fill="#1E39A0" cx="30" cy="32" rx="22" ry="22"/>
	<g id="Group_1765" transform="translate(17 19)">
		<path id="Path_788" fill="#FFFFFF" d="M11.0419998,6.1160126c0,0-12.0559998,13.9149933,3.8240013,19.8840027
			c0,0-14.5180016-0.4940033-14.8660011-11.276001C0,14.723999,0,5.8500061,11.0419998,6.1160126z"/>
		<path id="Path_789" fill="#FFFFFF" d="M20.4599991,14.7429962c0,0-6.9280014-17.0579987-19.4540024-5.6170044
			c0,0,7.0309982-12.7129974,16.7999954-8.1300049C17.802002,0.9970093,25.7040024,5.0220032,20.4599991,14.7429962z"/>
		<path id="Path_790" fill="#FFFFFF" d="M8.0320015,19.1049957c0,0,18.1999969,2.7450104,14.7539978-13.8639984
			c0,0,7.3470001,12.5330048-1.5770035,18.5930023C21.2090034,23.8320007,13.7150002,28.5749969,8.0320015,19.1049957z"/>
	</g>
	<g id="Group_1807" transform="translate(-434 -209)">
		<g enable-background="new    ">
			<path fill="#FFFFFF" d="M501.8759766,244.3339844c0.0976562,0.6914062,0.2895508,1.2070312,0.5756836,1.5488281
				c0.5234375,0.6220703,1.4204102,0.9335938,2.690918,0.9335938c0.7607422,0,1.378418-0.0820312,1.8530273-0.2460938
				c0.9003906-0.3144531,1.3505859-0.8994141,1.3505859-1.7539062c0-0.4990234-0.2207031-0.8847656-0.6616211-1.1582031
				c-0.440918-0.2675781-1.140625-0.5029297-2.0986328-0.7080078l-1.6362305-0.3583984
				c-1.6079102-0.3554688-2.7128906-0.7421875-3.3144531-1.1591797c-1.0185547-0.6972656-1.527832-1.7871094-1.527832-3.2705078
				c0-1.3535156,0.4980469-2.4785156,1.4946289-3.3740234s2.4599609-1.3427734,4.3911133-1.3427734
				c1.6123047,0,2.9873047,0.421875,4.1259766,1.265625c1.1381836,0.8447266,1.7348633,2.0703125,1.7905273,3.6757812h-3.0351562
				c-0.0561523-0.9082031-0.4624023-1.5546875-1.2192383-1.9375c-0.5048828-0.2529297-1.1318359-0.3789062-1.8818359-0.3789062
				c-0.8339844,0-1.4995117,0.1640625-1.9975586,0.4921875c-0.4975586,0.328125-0.7460938,0.7861328-0.7460938,1.3730469
				c0,0.5410156,0.2451172,0.9433594,0.7358398,1.2109375c0.3154297,0.1777344,0.984375,0.3857422,2.0078125,0.625l2.652832,0.625
				c1.1621094,0.2744141,2.0336914,0.6396484,2.6137695,1.0976562c0.9008789,0.7109375,1.3515625,1.7402344,1.3515625,3.0859375
				c0,1.3818359-0.5336914,2.5283203-1.6015625,3.4404297c-1.0673828,0.9130859-2.5751953,1.3691406-4.5239258,1.3691406
				c-1.9897461,0-3.5546875-0.4492188-4.6948242-1.3486328c-1.1401367-0.8984375-1.7099609-2.1337891-1.7099609-3.7070312
				H501.8759766z"/>
			<path fill="#FFFFFF" d="M517.6923828,242.2011719c0.5439453-0.0673828,0.9331055-0.1533203,1.1669922-0.2558594
				c0.4204102-0.1777344,0.6303711-0.4541016,0.6303711-0.8300781c0-0.4580078-0.1611328-0.7744141-0.4833984-0.9492188
				c-0.3222656-0.1738281-0.7949219-0.2617188-1.4189453-0.2617188c-0.699707,0-1.1953125,0.171875-1.4863281,0.5136719
				c-0.2075195,0.2529297-0.3461914,0.59375-0.4155273,1.0253906h-2.8198242
				c0.0615234-0.9775391,0.3364258-1.78125,0.8237305-2.4101562c0.7758789-0.984375,2.1079102-1.4765625,3.9960938-1.4765625
				c1.2285156,0,2.3203125,0.2431641,3.2749023,0.7285156c0.9541016,0.4853516,1.4311523,1.4013672,1.4311523,2.7480469v5.1269531
				c0,0.3554688,0.0068359,0.7861328,0.0205078,1.2910156c0.0205078,0.3837891,0.0786133,0.6435547,0.1743164,0.7792969
				c0.0957031,0.1376953,0.2392578,0.25,0.4306641,0.3388672V249h-3.1787109
				c-0.0888672-0.2255859-0.1503906-0.4375-0.1845703-0.6357422s-0.0615234-0.4238281-0.0820312-0.6767578
				c-0.4057617,0.4375-0.8735352,0.8105469-1.402832,1.1171875c-0.6323242,0.3623047-1.3476562,0.5439453-2.1450195,0.5439453
				c-1.0180664,0-1.8583984-0.2890625-2.5219727-0.8662109c-0.6635742-0.578125-0.9951172-1.3964844-0.9951172-2.4560547
				c0-1.3740234,0.5336914-2.3681641,1.6010742-2.9833984c0.5854492-0.3349609,1.4462891-0.5742188,2.5825195-0.71875
				L517.6923828,242.2011719z M519.4794922,243.5654297c-0.1875,0.1162109-0.3759766,0.2099609-0.5668945,0.2822266
				c-0.1904297,0.0712891-0.4521484,0.1386719-0.784668,0.1992188l-0.6650391,0.1230469
				c-0.6235352,0.1103516-1.0712891,0.2431641-1.3432617,0.4003906c-0.4604492,0.2666016-0.6904297,0.6806641-0.6904297,1.2402344
				c0,0.5,0.140625,0.8603516,0.421875,1.0820312c0.2807617,0.2226562,0.6225586,0.3339844,1.0253906,0.3339844
				c0.6386719,0,1.2265625-0.1855469,1.7646484-0.5546875s0.8173828-1.0419922,0.8383789-2.0195312V243.5654297z"/>
			<path fill="#FFFFFF" d="M527.8237305,249h-2.9223633v-15.1142578h2.9223633V249z"/>
			<path fill="#FFFFFF" d="M537.8525391,238.0498047c0.7797852,0.3486328,1.4233398,0.9003906,1.9311523,1.6533203
				c0.4580078,0.6640625,0.7548828,1.4345703,0.890625,2.3105469c0.0786133,0.5136719,0.1108398,1.2529297,0.0961914,2.21875
				h-8.1401367c0.0454102,1.1210938,0.4350586,1.90625,1.1689453,2.3574219
				c0.4462891,0.28125,0.9833984,0.4208984,1.6113281,0.4208984c0.6655273,0,1.206543-0.1708984,1.6225586-0.5126953
				c0.2270508-0.1845703,0.4272461-0.4414062,0.6015625-0.7695312h2.9833984
				c-0.0786133,0.6640625-0.4399414,1.3369141-1.0834961,2.0205078c-1.0009766,1.0869141-2.402832,1.6298828-4.2045898,1.6298828
				c-1.487793,0-2.7998047-0.4580078-3.9370117-1.375c-1.137207-0.9160156-1.7055664-2.4082031-1.7055664-4.4746094
				c0-1.9355469,0.5131836-3.4208984,1.5395508-4.4541016c1.0263672-1.0322266,2.3588867-1.5498047,3.9970703-1.5498047
				C536.1967773,237.5253906,537.0727539,237.7001953,537.8525391,238.0498047z M533.4804688,240.5742188
				c-0.4130859,0.4257812-0.6723633,1.0019531-0.7783203,1.7304688h5.034668
				c-0.0532227-0.7763672-0.3125-1.3652344-0.7783203-1.7666016c-0.4663086-0.4013672-1.0439453-0.6025391-1.7333984-0.6025391
				C534.4750977,239.9355469,533.8935547,240.1484375,533.4804688,240.5742188z"/>
			<path fill="#FFFFFF" d="M544.4101562,245.4316406c0.0615234,0.5195312,0.1953125,0.8886719,0.4013672,1.1074219
				c0.3642578,0.3896484,1.0371094,0.5839844,2.0195312,0.5839844c0.5771484,0,1.0351562-0.0849609,1.3759766-0.2558594
				c0.3398438-0.1708984,0.5097656-0.4267578,0.5097656-0.7695312c0-0.328125-0.1376953-0.5771484-0.4111328-0.7480469
				c-0.2744141-0.1708984-1.2939453-0.4648438-3.0576172-0.8818359c-1.2695312-0.3144531-2.1640625-0.7080078-2.6835938-1.1787109
				c-0.5195312-0.4648438-0.7792969-1.1347656-0.7792969-2.0097656c0-1.0322266,0.4052734-1.9199219,1.2167969-2.6611328
				c0.8125-0.7421875,1.9550781-1.1123047,3.4277344-1.1123047c1.3964844,0,2.5361328,0.2783203,3.4160156,0.8349609
				c0.8808594,0.5576172,1.3857422,1.5195312,1.515625,2.8867188h-2.921875
				c-0.0410156-0.3759766-0.1474609-0.6728516-0.3183594-0.8916016c-0.3222656-0.3964844-0.8710938-0.5957031-1.6455078-0.5957031
				c-0.6376953,0-1.0917969,0.0996094-1.3623047,0.2978516c-0.2714844,0.1982422-0.40625,0.4306641-0.40625,0.6972656
				c0,0.3349609,0.1445312,0.578125,0.4316406,0.7275391c0.2880859,0.1582031,1.3046875,0.4277344,3.0507812,0.8105469
				c1.1650391,0.2734375,2.0371094,0.6875,2.6191406,1.2402344c0.5742188,0.5615234,0.8613281,1.2617188,0.8613281,2.1025391
				c0,1.1074219-0.4130859,2.0117188-1.2382812,2.7119141c-0.8261719,0.7011719-2.1015625,1.0507812-3.828125,1.0507812
				c-1.7597656,0-3.0595703-0.3701172-3.8984375-1.1123047c-0.8398438-0.7412109-1.2587891-1.6865234-1.2587891-2.8349609
				H544.4101562z"/>
		</g>
		<g enable-background="new    ">
			<path fill="#FFFFFF" d="M553.4667969,241.4609375c0-1.1054688,0.1503906-2.1416016,0.4511719-3.1083984
				c0.3007812-0.9658203,0.7460938-1.8085938,1.3339844-2.5302734c0.5878906-0.7207031,1.3154297-1.2910156,2.1835938-1.7109375
				s1.8691406-0.6298828,3.0029297-0.6298828c1.1767578,0,2.2089844,0.2060547,3.0976562,0.6191406
				s1.6308594,0.9804688,2.2265625,1.7011719c0.5947266,0.7207031,1.0419922,1.5673828,1.34375,2.5410156
				c0.3007812,0.9726562,0.4511719,2.0126953,0.4511719,3.1181641c0,1.0917969-0.1503906,2.1181641-0.4511719,3.0761719
				c-0.3017578,0.9599609-0.7460938,1.7998047-1.3339844,2.5205078s-1.3222656,1.2910156-2.2050781,1.7109375
				c-0.8818359,0.4208984-1.9033203,0.6308594-3.0654297,0.6308594s-2.1845703-0.2099609-3.0664062-0.6308594
				c-0.8818359-0.4199219-1.6171875-0.9902344-2.2050781-1.7109375s-1.0283203-1.5605469-1.3222656-2.5205078
				C553.6132812,243.5791016,553.4667969,242.5527344,553.4667969,241.4609375z M560.5224609,248.1806641
				c0.9804688,0,1.8232422-0.1845703,2.53125-0.5566406c0.7060547-0.3701172,1.2871094-0.8642578,1.7421875-1.4804688
				c0.4550781-0.6152344,0.7910156-1.3291016,1.0087891-2.1416016c0.2167969-0.8115234,0.3251953-1.6591797,0.3251953-2.5410156
				c0-1.0498047-0.1298828-1.9912109-0.3886719-2.8242188s-0.6337891-1.5439453-1.1230469-2.1318359
				c-0.4902344-0.5878906-1.0859375-1.0361328-1.7851562-1.34375c-0.7001953-0.3076172-1.484375-0.4619141-2.3525391-0.4619141
				c-0.9658203,0-1.8027344,0.1884766-2.5087891,0.5664062c-0.7080078,0.3779297-1.2890625,0.8789062-1.7431641,1.5019531
				c-0.4550781,0.6230469-0.7910156,1.3408203-1.0078125,2.1523438c-0.2177734,0.8125-0.3261719,1.6591797-0.3261719,2.5410156
				c0,0.8964844,0.1083984,1.75,0.3261719,2.5625c0.2167969,0.8115234,0.5527344,1.5253906,1.0078125,2.1416016
				c0.4541016,0.6162109,1.0351562,1.1064453,1.7431641,1.4697266
				C558.6777344,247.9990234,559.5283203,248.1806641,560.5224609,248.1806641z"/>
			<path fill="#FFFFFF" d="M577.4697266,238.1220703h1.2597656V249h-1.2597656v-1.5117188
				c-0.1679688,0.1962891-0.3574219,0.3984375-0.5673828,0.6083984s-0.4511719,0.4033203-0.7246094,0.578125
				c-0.2724609,0.1748047-0.5908203,0.3222656-0.9550781,0.4404297c-0.3642578,0.1191406-0.7841797,0.1787109-1.2597656,0.1787109
				c-0.7285156,0-1.3369141-0.1015625-1.8271484-0.3046875c-0.4902344-0.2021484-0.8857422-0.4863281-1.1865234-0.8505859
				c-0.3007812-0.3632812-0.5185547-0.7871094-0.6513672-1.2705078c-0.1328125-0.4824219-0.1992188-1.0107422-0.1992188-1.5849609
				v-7.1611328h1.2597656v7.1396484c0,0.9384766,0.2167969,1.65625,0.6513672,2.1523438
				c0.4335938,0.4970703,1.1474609,0.7460938,2.1416016,0.7460938c0.5185547,0,0.9833984-0.1015625,1.3964844-0.3046875
				s0.7597656-0.4863281,1.0400391-0.8505859c0.2792969-0.3642578,0.4960938-0.7978516,0.6503906-1.3017578
				s0.2314453-1.0566406,0.2314453-1.6591797V238.1220703z"/>
			<path fill="#FFFFFF" d="M585.4921875,249.0419922c-0.1542969,0.0283203-0.3574219,0.0771484-0.609375,0.1474609
				c-0.2519531,0.0693359-0.5322266,0.1044922-0.8398438,0.1044922c-0.6298828,0-1.109375-0.1572266-1.4384766-0.4726562
				c-0.3291016-0.3144531-0.4931641-0.8779297-0.4931641-1.6904297v-7.9589844h-1.5332031v-1.0498047h1.5332031v-3.0244141
				h1.2597656v3.0244141h2.0371094v1.0498047h-2.0371094v7.4550781c0,0.2666016,0.0068359,0.4970703,0.0205078,0.6933594
				s0.0556641,0.3564453,0.1259766,0.4824219s0.1787109,0.2177734,0.3261719,0.2734375
				c0.1464844,0.0556641,0.3535156,0.0839844,0.6191406,0.0839844c0.1679688,0,0.3388672-0.0136719,0.5146484-0.0419922
				c0.1748047-0.0283203,0.3466797-0.0634766,0.5146484-0.1054688V249.0419922z"/>
			<path fill="#FFFFFF" d="M588.7255859,249h-1.2597656v-10.8779297h1.2597656v2.0371094h0.0419922
				c0.3496094-0.8681641,0.8017578-1.4736328,1.3544922-1.8164062s1.2841797-0.5146484,2.1943359-0.5146484v1.3652344
				c-0.7138672-0.0136719-1.3017578,0.0976562-1.7636719,0.3359375s-0.8291016,0.5595703-1.1025391,0.9658203
				c-0.2724609,0.40625-0.4619141,0.8857422-0.5664062,1.4384766c-0.1054688,0.5527344-0.1582031,1.1308594-0.1582031,1.7324219V249
				z"/>
			<path fill="#FFFFFF" d="M595.0673828,243.8554688c0,0.5878906,0.0771484,1.1435547,0.2314453,1.6689453
				c0.1533203,0.5253906,0.3808594,0.9804688,0.6826172,1.3652344c0.3007812,0.3847656,0.6816406,0.6923828,1.1445312,0.9238281
				c0.4619141,0.2314453,0.9931641,0.3466797,1.5957031,0.3466797c0.8261719,0,1.5332031-0.2167969,2.1210938-0.6513672
				c0.5878906-0.4335938,0.9794922-1.0498047,1.1757812-1.8476562h1.4072266
				c-0.1542969,0.5175781-0.3574219,0.9970703-0.609375,1.4384766c-0.2519531,0.4404297-0.5664062,0.8261719-0.9453125,1.1552734
				c-0.3779297,0.3291016-0.8261719,0.5839844-1.34375,0.7666016c-0.5175781,0.1816406-1.1201172,0.2724609-1.8056641,0.2724609
				c-0.8681641,0-1.6171875-0.1464844-2.2470703-0.4414062c-0.6298828-0.2939453-1.1484375-0.6962891-1.5537109-1.2070312
				c-0.40625-0.5107422-0.7070312-1.1132812-0.9033203-1.8056641c-0.1962891-0.6933594-0.2939453-1.4384766-0.2939453-2.2373047
				c0-0.7978516,0.1152344-1.5458984,0.3466797-2.2460938c0.2304688-0.7001953,0.5595703-1.3125,0.9863281-1.8378906
				c0.4277344-0.5253906,0.9482422-0.9375,1.5644531-1.2392578c0.6162109-0.3007812,1.3164062-0.4511719,2.1005859-0.4511719
				c1.4980469,0,2.6738281,0.5146484,3.5283203,1.5429688c0.8535156,1.0292969,1.2734375,2.5244141,1.2597656,4.484375H595.0673828z
				 M602.1660156,242.8046875c0-0.53125-0.0742188-1.0322266-0.2207031-1.5009766
				c-0.1474609-0.46875-0.3642578-0.875-0.6513672-1.2177734c-0.2871094-0.34375-0.6474609-0.6162109-1.0810547-0.8193359
				c-0.4345703-0.203125-0.9316406-0.3046875-1.4912109-0.3046875c-0.5605469,0-1.0537109,0.1054688-1.4804688,0.3154297
				c-0.4277344,0.2099609-0.7910156,0.4902344-1.0917969,0.8398438c-0.3017578,0.3496094-0.5429688,0.7558594-0.7246094,1.2177734
				c-0.1826172,0.4619141-0.3017578,0.9521484-0.3574219,1.4697266H602.1660156z"/>
			<path fill="#FFFFFF" d="M610.859375,242.6582031c0.2382812-0.0283203,0.5214844-0.0703125,0.8505859-0.1259766
				s0.5986328-0.1328125,0.8085938-0.2314453c0.2099609-0.0976562,0.3388672-0.2626953,0.3886719-0.4931641
				c0.0488281-0.2314453,0.0732422-0.4443359,0.0732422-0.640625c0-0.6435547-0.2070312-1.1728516-0.6191406-1.5859375
				c-0.4130859-0.4121094-1.1103516-0.6191406-2.0898438-0.6191406c-0.4345703,0-0.8330078,0.0390625-1.1972656,0.1152344
				c-0.3642578,0.0771484-0.6826172,0.2099609-0.9550781,0.3994141c-0.2734375,0.1884766-0.4970703,0.4414062-0.671875,0.7558594
				c-0.1757812,0.3154297-0.2910156,0.7109375-0.3466797,1.1865234h-1.28125
				c0.0419922-0.6435547,0.1894531-1.1933594,0.4414062-1.6484375s0.5771484-0.8261719,0.9765625-1.1132812
				c0.3984375-0.2861328,0.8603516-0.4960938,1.3857422-0.6298828c0.5244141-0.1328125,1.0810547-0.1992188,1.6689453-0.1992188
				c0.5458984,0,1.0605469,0.0595703,1.5439453,0.1787109s0.9033203,0.3076172,1.2597656,0.5664062
				c0.3574219,0.2597656,0.6367188,0.6064453,0.8398438,1.0400391s0.3046875,0.9658203,0.3046875,1.5957031v5.921875
				c0,0.4902344,0.0878906,0.8017578,0.2626953,0.9345703s0.5283203,0.1015625,1.0605469-0.0947266v0.9873047
				c-0.0986328,0.0283203-0.2412109,0.0703125-0.4306641,0.1259766c-0.1884766,0.0556641-0.375,0.0839844-0.5566406,0.0839844
				c-0.1962891,0-0.3847656-0.0205078-0.5664062-0.0625c-0.2099609-0.0283203-0.3779297-0.0947266-0.5048828-0.2001953
				c-0.1259766-0.1044922-0.2275391-0.2304688-0.3037109-0.3779297c-0.0771484-0.1464844-0.1298828-0.3076172-0.1582031-0.4824219
				c-0.0273438-0.1757812-0.0419922-0.3603516-0.0419922-0.5566406c-0.5322266,0.5878906-1.140625,1.0361328-1.8261719,1.34375
				c-0.6865234,0.3076172-1.4287109,0.4619141-2.2265625,0.4619141c-0.4755859,0-0.9345703-0.0625-1.375-0.1884766
				c-0.4414062-0.1269531-0.8300781-0.3222656-1.1660156-0.5888672c-0.3359375-0.265625-0.6015625-0.5908203-0.7978516-0.9765625
				c-0.1962891-0.3847656-0.2939453-0.8427734-0.2939453-1.375c0-1.8476562,1.2666016-2.9404297,3.8007812-3.2763672
				L610.859375,242.6582031z M612.9804688,243.2880859c-0.5322266,0.2236328-1.0712891,0.3710938-1.6171875,0.4404297
				c-0.5458984,0.0703125-1.0917969,0.1269531-1.6376953,0.1689453c-0.9658203,0.0693359-1.71875,0.2871094-2.2578125,0.6503906
				c-0.5390625,0.3642578-0.8085938,0.9169922-0.8085938,1.6591797c0,0.3359375,0.0664062,0.6269531,0.1992188,0.8710938
				c0.1337891,0.2451172,0.3085938,0.4482422,0.5253906,0.609375s0.46875,0.2802734,0.7558594,0.3574219
				s0.578125,0.1152344,0.8720703,0.1152344c0.5039062,0,0.9931641-0.0634766,1.4697266-0.1894531
				c0.4755859-0.1259766,0.8994141-0.3183594,1.2705078-0.5771484s0.6679688-0.5878906,0.8925781-0.9873047
				c0.2236328-0.3984375,0.3359375-0.8710938,0.3359375-1.4169922V243.2880859z"/>
			<path fill="#FFFFFF" d="M625.1396484,241.5449219c-0.2236328-0.8115234-0.609375-1.4453125-1.1552734-1.9003906
				s-1.2382812-0.6826172-2.0791016-0.6826172c-0.6435547,0-1.1962891,0.1337891-1.6582031,0.3994141
				c-0.4628906,0.265625-0.8408203,0.6191406-1.1347656,1.0605469c-0.2939453,0.4404297-0.5107422,0.9375-0.6503906,1.4902344
				c-0.140625,0.5537109-0.2099609,1.1103516-0.2099609,1.6699219c0,0.5742188,0.0664062,1.1337891,0.1992188,1.6796875
				s0.3466797,1.0361328,0.640625,1.4707031c0.2939453,0.4335938,0.671875,0.7802734,1.1337891,1.0390625
				s1.0214844,0.3886719,1.6796875,0.3886719c0.9384766,0,1.6904297-0.2587891,2.2578125-0.7773438
				c0.5673828-0.5175781,0.9277344-1.2314453,1.0820312-2.1416016h1.34375
				c-0.1123047,0.6015625-0.2910156,1.1513672-0.5361328,1.6484375s-0.5595703,0.9238281-0.9443359,1.28125
				c-0.3857422,0.3564453-0.84375,0.6328125-1.3759766,0.8291016s-1.140625,0.2939453-1.8271484,0.2939453
				c-0.8681641,0-1.6162109-0.1464844-2.2470703-0.4414062c-0.6298828-0.2939453-1.1474609-0.6962891-1.5537109-1.2070312
				s-0.7070312-1.1162109-0.9033203-1.8164062c-0.1953125-0.7001953-0.2939453-1.4492188-0.2939453-2.2470703
				c0-0.7558594,0.1083984-1.4804688,0.3261719-2.1738281c0.2167969-0.6923828,0.5351562-1.3046875,0.9550781-1.8369141
				s0.9414062-0.9560547,1.5644531-1.2705078c0.6230469-0.3154297,1.3408203-0.4726562,2.1523438-0.4726562
				c1.2607422,0,2.2792969,0.3007812,3.0556641,0.9033203c0.7773438,0.6015625,1.2636719,1.5400391,1.4599609,2.8134766H625.1396484
				z"/>
			<path fill="#FFFFFF" d="M629.0039062,249v-15.1201172h1.2597656v5.7539062
				c0.5039062-0.53125,1.0253906-0.9658203,1.5644531-1.3017578s1.1865234-0.5039062,1.9423828-0.5039062
				c0.671875,0,1.2949219,0.1152344,1.8691406,0.3466797c0.5732422,0.2304688,1.0566406,0.6337891,1.4492188,1.2070312
				c0.265625,0.3925781,0.4228516,0.7949219,0.4716797,1.2080078s0.0742188,0.84375,0.0742188,1.2910156V249h-1.2607422v-7.0976562
				c0-0.9804688-0.2167969-1.7148438-0.6503906-2.2050781c-0.4345703-0.4902344-1.1552734-0.7353516-2.1630859-0.7353516
				c-0.3925781,0-0.7490234,0.0595703-1.0712891,0.1787109s-0.6123047,0.2763672-0.8710938,0.4726562
				c-0.2597656,0.1962891-0.4794922,0.4199219-0.6621094,0.671875c-0.1816406,0.2519531-0.3222656,0.5175781-0.4199219,0.7978516
				c-0.1259766,0.3505859-0.203125,0.6865234-0.2304688,1.0078125c-0.0283203,0.3222656-0.0419922,0.671875-0.0419922,1.0498047V249
				H629.0039062z"/>
		</g>
	</g>
</g>
</svg>
