<?xml version="1.0" encoding="utf-8"?>
<!-- Generator: Adobe Illustrator 26.5.0, SVG Export Plug-In . SVG Version: 6.00 Build 0)  -->
<svg version="1.1" id="Layer_1" xmlns="http://www.w3.org/2000/svg" xmlns:xlink="http://www.w3.org/1999/xlink" x="0px" y="0px"
	 width="45.8px" height="54px" viewBox="0 0 45.8 54" enable-background="new 0 0 45.8 54" xml:space="preserve">
<g id="Group_2057" transform="translate(-642 -216.565)">
	<g id="Group_2018" transform="translate(-149.188 -389.317)">
		<path id="Path_959" fill="#757575" d="M791.2,658.7c0,0.7,0.7,1.2,1.6,1.2h42.6c0.9,0,1.6-0.5,1.6-1.2v-29.2h-45.8L791.2,658.7z"
			/>
		<path id="Path_960" fill="#757575" d="M826.7,605.9h-33.9c-0.9,0-1.7,0.8-1.6,1.8v22.9H837v-13.4L826.7,605.9z"/>
		<path id="Path_961" fill="#505050" d="M825.8,615.3c0,1,0.8,1.8,1.8,1.8l0,0h9.5l-11.2-11.2L825.8,615.3z"/>
		<g>
			<rect id="Rectangle_2754" x="797.2" y="634.9" fill="#FFFFFF" width="2.4" height="2.5"/>
			<rect id="Rectangle_2757" x="797.2" y="629.8" fill="#FFFFFF" width="2.4" height="2.5"/>
			<rect id="Rectangle_2755" x="797.2" y="639.8" fill="#FFFFFF" width="2.4" height="2.5"/>
			<rect id="Rectangle_2756" x="797.2" y="644.7" fill="#FFFFFF" width="2.4" height="2.5"/>
			
				<rect id="Rectangle_2754_00000029047371156201568810000013984671371304247213_" x="799.6" y="637.3" fill="#FFFFFF" width="2.4" height="2.5"/>
			
				<rect id="Rectangle_2757_00000147916232019989809150000006897905835821297813_" x="799.6" y="632.2" fill="#FFFFFF" width="2.4" height="2.5"/>
			
				<rect id="Rectangle_2755_00000019664487450643621790000010974883138120695708_" x="799.6" y="642.2" fill="#FFFFFF" width="2.4" height="2.5"/>
			
				<rect id="Rectangle_2756_00000057854213575724100730000009763483792899769492_" x="799.6" y="647.2" fill="#FFFFFF" width="2.4" height="2.5"/>
			
				<rect id="Rectangle_2754_00000097470873100928189500000005415654865215938201_" x="797.2" y="654.7" fill="#FFFFFF" width="2.4" height="2.5"/>
			
				<rect id="Rectangle_2757_00000164511660852202212290000007221455426934578872_" x="797.2" y="649.6" fill="#FFFFFF" width="2.4" height="2.5"/>
			
				<rect id="Rectangle_2754_00000096018964091760132200000012637454665619472004_" x="799.6" y="657.1" fill="#FFFFFF" width="2.4" height="2.5"/>
			
				<rect id="Rectangle_2757_00000144335190159308807190000017111922541861862327_" x="799.6" y="652.1" fill="#FFFFFF" width="2.4" height="2.5"/>
		</g>
	</g>
	<text transform="matrix(1 0 0 1 648 234.0001)" fill="#FFFFFF" font-family="'Lato-Heavy'" font-size="13px">ZIP</text>
</g>
</svg>
