<?xml version="1.0" encoding="utf-8"?>
<!-- Generator: Adobe Illustrator 25.2.1, SVG Export Plug-In . SVG Version: 6.00 Build 0)  -->
<svg version="1.1" id="Layer_1" xmlns="http://www.w3.org/2000/svg" xmlns:xlink="http://www.w3.org/1999/xlink" x="0px" y="0px"
	 width="200px" height="101.108696px" viewBox="0 0 200 101.108696" style="enable-background:new 0 0 200 101.108696;"
	 xml:space="preserve">
<style type="text/css">
	.st0{fill:#1E39A0;}
	.st1{fill:#FFFFFF;}
	.st2{enable-background:new    ;}
</style>
<g id="Group_2064" transform="translate(-8 -10)">
	<ellipse id="Ellipse_15" class="st0" cx="108" cy="41.706356" rx="31.706356" ry="31.706356"/>
	<g id="Group_1765" transform="translate(17 19)">
		<path id="Path_788" class="st1" d="M88.4448776,12.7851667c0,0-17.3750839,20.0542603,5.5111465,28.6567841
			c0,0-20.923317-0.711956-21.4248505-16.2509499C72.5311737,25.190979,72.5311737,12.4017992,88.4448776,12.7851667z"/>
		<path id="Path_789" class="st1" d="M102.018074,25.218359c0,0-9.9846191-24.5839539-28.0370636-8.0952168
			c0,0,10.1330643-18.3219452,24.2121124-11.7169456C98.1873779,5.4076695,109.5757217,11.2084827,102.018074,25.218359z"/>
		<path id="Path_790" class="st1" d="M84.1068726,31.5048637c0,0,26.229805,3.9561043,21.2634354-19.9807663
			c0,0,10.5884781,18.062542-2.2727737,26.796196C103.0975418,38.3174133,92.2972031,45.1530113,84.1068726,31.5048637z"/>
	</g>
	<g id="Group_1807" transform="translate(-434 -209)">
		<g class="st2">
			<path class="st1" d="M446.344696,312.8084106c0.1407471,0.99646,0.4172974,1.739563,0.8296814,2.2321777
				c0.754364,0.8965149,2.0470886,1.3454895,3.8781433,1.3454895c1.0963745,0,1.9865723-0.1182251,2.6705933-0.3546753
				c1.2976379-0.453186,1.9464417-1.2962341,1.9464417-2.5277405c0-0.7191772-0.3180542-1.275116-0.9535217-1.6691895
				c-0.635437-0.3856201-1.6438599-0.724823-3.0245361-1.0203857l-2.3581238-0.51651
				c-2.3173218-0.5122986-3.9098206-1.0696411-4.7767944-1.6706238c-1.467926-1.0048828-2.2019043-2.5755615-2.2019043-4.7134399
				c0-1.9506836,0.7177734-3.5720215,2.1540527-4.8626404c1.4362793-1.2905884,3.5452881-1.9352112,6.3284607-1.9352112
				c2.3236389,0,4.3052979,0.6080322,5.9463501,1.8240356c1.6403503,1.2174072,2.5002747,2.9837341,2.5805054,5.2975159h-4.3742676
				c-0.0809326-1.3088989-0.6664124-2.2406006-1.7571716-2.7923279c-0.7276306-0.364502-1.6311951-0.546051-2.7120972-0.546051
				c-1.2019348,0-2.1610718,0.2364197-2.8788757,0.7093201c-0.7170715,0.4729004-1.0752563,1.1329651-1.0752563,1.9788513
				c0,0.7796936,0.3532715,1.3595581,1.0604858,1.7451782c0.4545898,0.2561646,1.4186707,0.5559387,2.8936462,0.9007568
				l3.8232727,0.9007568c1.6748352,0.3954773,2.9309387,0.9218445,3.7669678,1.5819397
				c1.2983398,1.0245972,1.9478455,2.5080261,1.9478455,4.4474487c0,1.9914856-0.7691345,3.6437988-2.3081665,4.9583435
				c-1.5382996,1.315918-3.7113647,1.9732056-6.5198669,1.9732056c-2.8676147,0-5.1230164-0.6474304-6.7661743-1.9436646
				C442.821228,316.8561401,442,315.0757751,442,312.8084106H446.344696z"/>
			<path class="st1" d="M469.1392822,309.7345886c0.7839355-0.0971069,1.3447876-0.2209473,1.6818542-0.3687439
				c0.605896-0.256134,0.9085083-0.6544495,0.9085083-1.1962891c0-0.6600952-0.2322388-1.1160889-0.6966858-1.3680115
				c-0.464447-0.2505188-1.1456299-0.3771973-2.0449829-0.3771973c-1.0084229,0-1.7226868,0.2477112-2.1420898,0.7402954
				c-0.2990723,0.3645325-0.4989319,0.8557129-0.5988464,1.4778137h-4.0639343
				c0.0886536-1.408844,0.4848633-2.5671387,1.1871643-3.4735107c1.1181946-1.4187012,3.0379028-2.1280212,5.7591553-2.1280212
				c1.7705383,0,3.3440247,0.3504333,4.7197876,1.0499268c1.3750305,0.6994934,2.062561,2.0196533,2.062561,3.9604797v7.3889465
				c0,0.5122986,0.0098572,1.1329651,0.0295715,1.8606262c0.029541,0.5531006,0.1132812,0.9274902,0.2512207,1.1231079
				c0.1379395,0.1984558,0.3448181,0.3602905,0.6206665,0.4883728v0.6206665h-4.5811462
				c-0.1280823-0.3251038-0.2167358-0.6305237-0.2659912-0.9162292c-0.0492859-0.2857056-0.0886841-0.6108093-0.1182251-0.9753418
				c-0.5848083,0.6305237-1.2589417,1.1681519-2.021759,1.6101074c-0.9113159,0.5221558-1.9422607,0.7839355-3.0914001,0.7839355
				c-1.4672546,0-2.6783142-0.4165955-3.6346741-1.2483826c-0.9563293-0.8331909-1.4341431-2.0126343-1.4341431-3.5396729
				c0-1.9802551,0.7691345-3.4129944,2.3074646-4.2996826c0.8437195-0.4827271,2.0843811-0.8275452,3.7218933-1.0358582
				L469.1392822,309.7345886z M471.7148438,311.7007751c-0.2702026,0.1674805-0.5418396,0.3025818-0.8169861,0.4067383
				c-0.2744446,0.1027527-0.6516418,0.1998596-1.1308594,0.2871094l-0.9584656,0.1773376
				c-0.8986206,0.1590271-1.5439453,0.3504333-1.9359131,0.5770569c-0.6636047,0.3842163-0.9950256,0.980957-0.9950256,1.7874146
				c0,0.7205811,0.2026672,1.2399292,0.6080017,1.5594177c0.4046326,0.3208923,0.8972168,0.4813232,1.4777832,0.4813232
				c0.9204407,0,1.7677307-0.267395,2.5432129-0.799408s1.178009-1.501709,1.208252-2.910553V311.7007751z"/>
			<path class="st1" d="M483.7405701,319.5330505h-4.211731v-21.7826233h4.211731V319.5330505z"/>
			<path class="st1" d="M498.1940613,303.7516479c1.1238098,0.5024719,2.0513,1.2976685,2.7831726,2.382782
				c0.6600647,0.9570312,1.0879211,2.0675049,1.2835693,3.3299561c0.1132812,0.7402954,0.159729,1.8057251,0.1386108,3.1976624
				h-11.7315369c0.0654297,1.6156921,0.6270142,2.7472839,1.6846924,3.3974915
				c0.6431885,0.4053345,1.4172668,0.6065979,2.3222351,0.6065979c0.9591675,0,1.7388611-0.2462769,2.3384399-0.7388916
				c0.3272095-0.2659912,0.6157227-0.6361389,0.8669434-1.1090393h4.2996826
				c-0.1133118,0.9570312-0.6340332,1.9267578-1.5615234,2.9119568c-1.442627,1.5664368-3.4629822,2.3489685-6.0596619,2.3489685
				c-2.1441956,0-4.0350647-0.6600647-5.6740112-1.9816284c-1.6389465-1.3201599-2.4580688-3.4707031-2.4580688-6.448822
				c0-2.7894897,0.739624-4.9301758,2.218811-6.41922c1.479187-1.4876404,3.3996277-2.2335815,5.7605591-2.2335815
				C495.8077698,302.9958801,497.0702209,303.2478027,498.1940613,303.7516479z M491.8930359,307.3898315
				c-0.5953369,0.6136475-0.9689941,1.4440308-1.1217041,2.4939575h7.2559509
				c-0.0767212-1.1188965-0.4503784-1.9675598-1.1217346-2.5460205c-0.6720276-0.5784607-1.5045166-0.8683777-2.4981689-0.8683777
				C493.3265076,306.4693909,492.4883728,306.7762146,491.8930359,307.3898315z"/>
			<path class="st1" d="M507.6448669,314.3903503c0.0886841,0.7487488,0.2814941,1.2807617,0.5784607,1.5960083
				c0.5249634,0.561554,1.4946899,0.8416443,2.910553,0.8416443c0.8317871,0,1.4918518-0.1224365,1.9830627-0.3687439
				c0.4897461-0.2463074,0.7346802-0.6150513,0.7346802-1.1090393c0-0.4729004-0.1984863-0.8317871-0.5925293-1.0780945
				c-0.3955078-0.2463074-1.8648376-0.6699219-4.4066467-1.2709045c-1.8296509-0.453186-3.1188354-1.0203857-3.8675842-1.698761
				c-0.7487488-0.6699219-1.1231384-1.6354065-1.1231384-2.8964539c0-1.4876404,0.5840759-2.7669983,1.7536621-3.8352356
				c1.1709595-1.0696411,2.8176575-1.6030273,4.940033-1.6030273c2.0126343,0,3.6550903,0.4010925,4.9231567,1.2033386
				c1.2694702,0.8036194,1.9971313,2.1899414,2.1843262,4.1603088h-4.2109985
				c-0.0591431-0.5418396-0.2125244-0.969696-0.4588013-1.2849731c-0.4644775-0.5714111-1.2554321-0.8585205-2.371521-0.8585205
				c-0.9190674,0-1.5735168,0.1435547-1.9633484,0.4292603c-0.3912659,0.2857056-0.5855103,0.620697-0.5855103,1.0049133
				c0,0.4827271,0.208313,0.8331909,0.6221008,1.0485229c0.4151917,0.2279968,1.8803101,0.6164551,4.3967896,1.1681519
				c1.6790161,0.3940735,2.9358521,0.9908447,3.7746582,1.7874451c0.8275757,0.8092651,1.241394,1.8183594,1.241394,3.0301514
				c0,1.5960083-0.5953369,2.899292-1.7846069,3.9084167c-1.1907349,1.0105286-3.0288086,1.5143738-5.5171204,1.5143738
				c-2.5361633,0-4.4094543-0.5334167-5.6184082-1.6030579c-1.2103882-1.0682068-1.8141785-2.430603-1.8141785-4.0857239
				H507.6448669z"/>
		</g>
		<g class="st2">
			<path class="st1" d="M520.6972656,308.6677856c0-1.5932007,0.2167969-3.0864868,0.6502686-4.4798279
				c0.4334717-1.3919373,1.0752563-2.6065369,1.9225464-3.646637c0.847229-1.0386658,1.895752-1.8605957,3.1469727-2.4657898
				c1.2511597-0.6051941,2.6937866-0.9077759,4.3278198-0.9077759c1.6959229,0,3.1835938,0.2969666,4.4643555,0.8923035
				c1.2807007,0.5953369,2.3503418,1.4130554,3.2088623,2.4517212c0.8571167,1.0386658,1.50177,2.2589111,1.9366455,3.6621094
				c0.4334717,1.4017944,0.6502075,2.9006958,0.6502075,4.4938965c0,1.5734863-0.2167358,3.0526733-0.6502075,4.4333801
				c-0.4348755,1.3834839-1.0752563,2.5938721-1.9225464,3.6325378s-1.9056396,1.8605957-3.1779785,2.4657898
				c-1.270874,0.6065979-2.743042,0.9092102-4.4178467,0.9092102c-1.6748657,0-3.1484375-0.3026123-4.4193115-0.9092102
				c-1.2709351-0.6051941-2.3306885-1.427124-3.1779785-2.4657898c-0.847229-1.0386658-1.4819946-2.249054-1.9056396-3.6325378
				C520.9083862,311.720459,520.6972656,310.241272,520.6972656,308.6677856z M530.8659058,318.3522339
				c1.4130249,0,2.6276245-0.2659912,3.6480103-0.8022156c1.0175781-0.5334167,1.8549805-1.245575,2.5108643-2.133667
				c0.6558228-0.8866577,1.1400146-1.9154968,1.4538574-3.0864563c0.312439-1.1695862,0.468689-2.3912048,0.468689-3.6621094
				c0-1.51297-0.1871948-2.869751-0.5601807-4.0702515c-0.3729858-1.200531-0.9133911-2.2251587-1.6185303-3.0724182
				c-0.706543-0.8472595-1.5650635-1.4932556-2.5727539-1.936615c-1.0091553-0.4433289-2.1392822-0.6657104-3.3905029-0.6657104
				c-1.3919067,0-2.5980835,0.271637-3.6156616,0.8163147c-1.0203857,0.5446777-1.8577881,1.2666931-2.512207,2.1646118
				c-0.6558838,0.8979492-1.1400146,1.9324036-1.4524536,3.1019592c-0.3138428,1.1709595-0.4700928,2.3912048-0.4700928,3.6621094
				c0,1.2919922,0.15625,2.5220947,0.4700928,3.6930542c0.312439,1.1695862,0.7965698,2.1983948,1.4524536,3.0864868
				c0.6544189,0.8880615,1.4918213,1.5946045,2.512207,2.1181641
				C528.2072754,318.0904541,529.4331665,318.3522339,530.8659058,318.3522339z"/>
			<path class="st1" d="M555.2902832,303.8558044h1.8155518v15.6772461h-1.8155518v-2.1786804
				c-0.2420654,0.2828979-0.5151367,0.5742188-0.817749,0.8768311c-0.3025513,0.3025818-0.6502075,0.5812683-1.0443115,0.8331909
				c-0.3926392,0.2519226-0.8514404,0.464447-1.3764038,0.6347351c-0.5249634,0.1717224-1.130188,0.2575684-1.8156128,0.2575684
				c-1.0499268,0-1.9267578-0.1463623-2.6332397-0.4391174c-0.706543-0.2913208-1.2765503-0.7008972-1.710022-1.2258606
				c-0.4335327-0.5235596-0.7473755-1.1343689-0.9387817-1.8310547c-0.1914062-0.6952515-0.2871094-1.456665-0.2871094-2.2842407
				v-10.3206177h1.8155518v10.2896423c0,1.3525391,0.3125,2.3869934,0.9387817,3.1019592
				c0.6248779,0.7163696,1.6536865,1.0752869,3.0864868,1.0752869c0.7473145,0,1.4172363-0.1463928,2.0125732-0.4391174
				c0.5953369-0.2927551,1.0949707-0.7008972,1.4989014-1.2258606c0.4025269-0.5249939,0.7149658-1.1498718,0.9373779-1.8760986
				c0.2223511-0.7262268,0.3335571-1.5228271,0.3335571-2.3912048V303.8558044z"/>
			<path class="st1" d="M566.8522339,319.5935669c-0.2224121,0.0408325-0.5151367,0.1112061-0.8782349,0.2125244
				c-0.3630981,0.0999451-0.7670288,0.1506042-1.2103882,0.1506042c-0.9077759,0-1.5988159-0.226593-2.0731201-0.6811829
				c-0.4743042-0.453186-0.7107544-1.2652893-0.7107544-2.4362488v-11.4704895h-2.2096558v-1.51297h2.2096558v-4.3587646h1.8155518
				v4.3587646h2.9359131v1.51297h-2.9359131v10.7442627c0,0.3842163,0.0098877,0.7163696,0.0296021,0.9992676
				c0.0196533,0.2828979,0.0802002,0.5137024,0.1815186,0.6952515c0.1013184,0.1815796,0.2575684,0.3138733,0.4700928,0.3940735
				c0.2111206,0.0802307,0.5094604,0.1210632,0.8922729,0.1210632c0.2421265,0,0.4884033-0.0197144,0.7417603-0.0605469
				c0.2518921-0.040802,0.4996338-0.0914612,0.7416992-0.1519775V319.5935669z"/>
			<path class="st1" d="M571.512207,319.5330505h-1.8156128v-15.6772461h1.8156128v2.9358826h0.0604858
				c0.5038452-1.2511902,1.1555176-2.1238098,1.9520874-2.6177979c0.7966309-0.4940186,1.850769-0.7416992,3.1624756-0.7416992
				v1.9675598c-1.0288086-0.0197144-1.8760986,0.1407471-2.5418091,0.4841614s-1.1948853,0.8064575-1.5889282,1.3919373
				c-0.3927002,0.5854797-0.6657104,1.2765198-0.8163452,2.0731201c-0.1519775,0.7966003-0.2279663,1.6297913-0.2279663,2.4967651
				V319.5330505z"/>
			<path class="st1" d="M580.6519775,312.1187744c0,0.8472595,0.1112061,1.6480713,0.3335571,2.4052734
				c0.2209473,0.7572021,0.5488892,1.4130554,0.9837646,1.9675903c0.4335327,0.5545044,0.9824219,0.9978333,1.6495361,1.3314209
				c0.6657104,0.3335571,1.4313354,0.4996338,2.2996826,0.4996338c1.1906738,0,2.2096558-0.3124695,3.0569458-0.9387512
				c0.847229-0.6249084,1.4116211-1.5130005,1.694519-2.6628418h2.0280762
				c-0.2223511,0.7459106-0.5150757,1.4369812-0.8782349,2.0731201c-0.3630981,0.6347351-0.8162842,1.1906738-1.3623657,1.664978
				c-0.5446777,0.4743042-1.1906738,0.8416443-1.9365845,1.1048279c-0.7459717,0.2617798-1.6143188,0.3926697-2.602356,0.3926697
				c-1.2511597,0-2.3306885-0.2111206-3.2384644-0.6361694c-0.9077759-0.4236145-1.6550903-1.003479-2.2391968-1.739563
				c-0.5855103-0.736084-1.0189819-1.6044617-1.3018799-2.6023254c-0.2828979-0.9992676-0.423584-2.0731201-0.423584-3.2243958
				c0-1.1498413,0.1660156-2.2279358,0.4996338-3.2370605c0.3320923-1.0091248,0.8063965-1.891571,1.4214478-2.6487732
				c0.6164551-0.7571716,1.3666382-1.3511047,2.2546997-1.7860107c0.8880615-0.4334717,1.8972168-0.6502075,3.0273438-0.6502075
				c2.1589966,0,3.8535156,0.7416992,5.085022,2.2237244c1.2301025,1.4833984,1.8352661,3.6381531,1.8155518,6.4628601H580.6519775z
				 M590.8825073,310.6044006c0-0.7656555-0.1069336-1.4876404-0.3180542-2.163208
				c-0.2125244-0.6755676-0.5249634-1.2610474-0.9387817-1.7550659c-0.4137573-0.4954224-0.9331055-0.888092-1.5579834-1.1808167
				c-0.6263428-0.2927551-1.3427124-0.4391174-2.1491699-0.4391174c-0.8078613,0-1.5186157,0.1520081-2.133606,0.4545898
				c-0.6164551,0.3026123-1.1400146,0.706543-1.5735474,1.2103882c-0.4348755,0.5038452-0.7824707,1.0893555-1.0442505,1.7550659
				c-0.2631836,0.6656799-0.4349365,1.3722229-0.5151367,2.1181641H590.8825073z"/>
			<path class="st1" d="M603.411377,310.39328c0.3433838-0.0408325,0.7515259-0.1013489,1.2258301-0.1815491
				c0.4743042-0.0802307,0.862793-0.1914368,1.1653442-0.3335571c0.3026123-0.1407471,0.4884033-0.3786011,0.5601807-0.7107544
				c0.0703735-0.3335571,0.1055298-0.6403809,0.1055298-0.9232788c0-0.9274902-0.2983398-1.6903076-0.8922729-2.2856445
				c-0.5953369-0.5939331-1.6002808-0.8923035-3.0119019-0.8923035c-0.6262817,0-1.2005005,0.0563049-1.7254639,0.1660767
				c-0.5249634,0.1111755-0.9838257,0.3025818-1.3764648,0.5756226c-0.394104,0.271637-0.7163696,0.6361694-0.9683228,1.0893555
				c-0.2533569,0.4545898-0.4194336,1.0245972-0.4996338,1.710022h-1.8465576
				c0.0605469-0.9274902,0.2730713-1.7198792,0.6361694-2.3757324s0.8317871-1.1906738,1.4074097-1.6044617
				c0.5742188-0.412384,1.2399292-0.7149658,1.9971313-0.9077759c0.7557983-0.1914062,1.5580444-0.2871094,2.4052734-0.2871094
				c0.7867432,0,1.5285034,0.0858459,2.2251587,0.2575378c0.6966553,0.1717224,1.3018799,0.4433289,1.8155518,0.8163147
				c0.5151367,0.3743591,0.9176636,0.8739929,1.2103882,1.4989014c0.2927246,0.6248779,0.4391479,1.3919373,0.4391479,2.2997131
				v8.5346069c0,0.7065125,0.1266479,1.1554871,0.37854,1.3468933c0.2519531,0.1914062,0.7614136,0.1463623,1.5285034-0.1365051
				v1.4228821c-0.1421509,0.0408325-0.3476562,0.1013489-0.6206665,0.1815491
				c-0.2716675,0.0802307-0.5404663,0.1210632-0.8022461,0.1210632c-0.2828979,0-0.5545044-0.0295715-0.8162842-0.0900879
				c-0.3026123-0.040802-0.5446777-0.1365051-0.7276611-0.2885132c-0.1815796-0.1506042-0.3279419-0.3321533-0.4376831-0.5446777
				c-0.1112061-0.2111206-0.1871948-0.4433289-0.2280273-0.6952515c-0.0394287-0.2533569-0.0605469-0.5193481-0.0605469-0.8022461
				c-0.7670288,0.8472595-1.6438599,1.4932861-2.6318359,1.936615c-0.9894409,0.4433289-2.059082,0.6657104-3.2089233,0.6657104
				c-0.6854248,0-1.3469238-0.0900879-1.9816284-0.271637c-0.6361694-0.1829529-1.1963501-0.464447-1.680481-0.8486633
				c-0.4841309-0.3828125-0.8669434-0.8515015-1.1498413-1.4074402c-0.2828979-0.5545044-0.423645-1.2145996-0.423645-1.9816284
				c0-2.6628418,1.8254395-4.2377625,5.4776611-4.7218933L603.411377,310.39328z M606.4682617,311.3010559
				c-0.7670288,0.3222961-1.5439453,0.5348206-2.3306885,0.6347656c-0.7867432,0.1013184-1.5734863,0.1829529-2.3602295,0.2434692
				c-1.3919067,0.0999146-2.4770508,0.4137878-3.2539673,0.9373474c-0.7768555,0.5249634-1.1653442,1.3215637-1.1653442,2.3912048
				c0,0.4841614,0.0957031,0.9035645,0.2871094,1.2554016c0.1928101,0.3532715,0.4447632,0.6460266,0.7572021,0.8782349
				c0.312439,0.2322388,0.6755981,0.4039307,1.0893555,0.5151367c0.4137573,0.1111755,0.8331909,0.1660767,1.2568359,0.1660767
				c0.7261963,0,1.4313354-0.0914917,2.1181641-0.2730408c0.6854248-0.1815796,1.2962036-0.4588318,1.8310547-0.8317871
				c0.53479-0.3729858,0.9626465-0.84729,1.286377-1.4229126c0.3222656-0.5742188,0.4841309-1.2554321,0.4841309-2.0421753
				V311.3010559z"/>
			<path class="st1" d="M623.9920654,308.7888184c-0.3223267-1.1695557-0.8782349-2.0829773-1.664978-2.7388306
				s-1.7846069-0.9837952-2.9963989-0.9837952c-0.9274902,0-1.7240601,0.1928101-2.3897705,0.5756226
				c-0.6671753,0.382843-1.211792,0.8923035-1.635437,1.5284729c-0.423645,0.6347351-0.736084,1.3511047-0.9373779,2.1477051
				c-0.2026367,0.7980347-0.3025513,1.6002502-0.3025513,2.4067078c0,0.8275452,0.0957031,1.6340027,0.2871094,2.4207458
				s0.4996338,1.4932861,0.9232788,2.1195984c0.423584,0.6248779,0.9682617,1.1245117,1.6339722,1.497467
				c0.6657104,0.3729858,1.472168,0.5601807,2.4207764,0.5601807c1.3525391,0,2.4362183-0.3729858,3.2539673-1.1203308
				c0.817688-0.7459106,1.3370361-1.7747498,1.5593872-3.0864563h1.9366455
				c-0.1618652,0.8669739-0.4194336,1.6593323-0.7727051,2.3757324c-0.3532715,0.7163696-0.8064575,1.3314209-1.3609619,1.8465271
				c-0.5559082,0.5137024-1.2160034,0.9120178-1.9830322,1.1948853c-0.7670898,0.2828979-1.6438599,0.423645-2.6333008,0.423645
				c-1.2512207,0-2.3292847-0.2111206-3.2384644-0.6361694c-0.9077759-0.4236145-1.6537476-1.003479-2.2391968-1.739563
				c-0.5855103-0.736084-1.0189819-1.6086731-1.3018799-2.6177979c-0.2814941-1.0091248-0.423645-2.088623-0.423645-3.2384644
				c0-1.0893555,0.15625-2.133667,0.4700928-3.1329346c0.312439-0.9978638,0.7712402-1.8803101,1.3764648-2.6473389
				c0.6051636-0.7670593,1.3567505-1.3778687,2.2546997-1.8310547c0.8978882-0.4545898,1.932373-0.6811829,3.1019287-0.6811829
				c1.8169556,0,3.2849121,0.4334717,4.4038086,1.3018494c1.1203003,0.8669739,1.821228,2.2195129,2.104126,4.0547791H623.9920654z"
				/>
			<path class="st1" d="M629.5612183,319.5330505v-21.7910767h1.8155518v8.292511
				c0.7262573-0.765625,1.4778442-1.3919373,2.2546997-1.8760681c0.7769165-0.4841614,1.710022-0.7262268,2.7993774-0.7262268
				c0.9683228,0,1.8662109,0.1660767,2.6937866,0.4996338c0.8261719,0.3321228,1.5228271,0.9133911,2.088623,1.739563
				c0.3828125,0.5657654,0.609436,1.1456299,0.6798096,1.7409668C641.9633789,308.0076904,642,308.6283569,642,309.2729797
				v10.2600708h-1.8169556v-10.229126c0-1.4130554-0.3125-2.4714355-0.9373779-3.177948
				c-0.6262817-0.7065125-1.664978-1.0597839-3.1174316-1.0597839c-0.5657959,0-1.0794678,0.0858459-1.5439453,0.2575684
				c-0.4644165,0.1716919-0.8824463,0.3982849-1.2554321,0.6811829c-0.3743286,0.2828979-0.69104,0.6051941-0.9542236,0.9682922
				c-0.2617798,0.3631287-0.4644165,0.7459412-0.6051636,1.1498718c-0.1815796,0.505249-0.2927246,0.9894104-0.3321533,1.4524536
				c-0.0408325,0.464447-0.0605469,0.9683228-0.0605469,1.51297v8.444519H629.5612183z"/>
		</g>
	</g>
</g>
</svg>
