<?xml version="1.0" encoding="utf-8"?>
<!-- Generator: Adobe Illustrator 26.5.0, SVG Export Plug-In . SVG Version: 6.00 Build 0)  -->
<svg version="1.1" id="Layer_1" xmlns="http://www.w3.org/2000/svg" xmlns:xlink="http://www.w3.org/1999/xlink" x="0px" y="0px"
	 width="45.8px" height="54px" viewBox="0 0 45.8 54" enable-background="new 0 0 45.8 54" xml:space="preserve">
<g id="Group_2057" transform="translate(-642 -216.565)">
	<g id="Group_2018" transform="translate(-149.188 -389.317)">
		<path id="Path_959" fill="#757575" d="M791.2,658.7c0,0.7,0.7,1.2,1.6,1.2h42.6c0.9,0,1.6-0.5,1.6-1.2v-29.2h-45.8L791.2,658.7z"
			/>
		<path id="Path_960" fill="#757575" d="M826.7,605.9h-33.9c-0.9,0-1.7,0.8-1.6,1.8v22.9H837v-13.4L826.7,605.9z"/>
		<path id="Path_961" fill="#505050" d="M825.8,615.3c0,1,0.8,1.8,1.8,1.8l0,0h9.5l-11.2-11.2L825.8,615.3z"/>
	</g>
	<text transform="matrix(1 0 0 1 648 234.0001)" fill="#FFFFFF" font-family="'Lato-Heavy'" font-size="13px">???</text>
</g>
</svg>
