<svg xmlns="http://www.w3.org/2000/svg" width="46.555" height="47.495" viewBox="0 0 46.555 47.495">
  <g id="Google__G__Logo" transform="translate(0.05 0.018)">
    <path id="Path_952" data-name="Path 952" d="M294.908,227.925a27.931,27.931,0,0,0-.41-4.825H272.1v9.144h12.826a10.992,10.992,0,0,1-4.747,7.216v5.933h7.652C292.326,241.258,294.908,235.15,294.908,227.925Z" transform="translate(-248.404 -203.65)" fill="#4285f4"/>
    <path id="Path_953" data-name="Path 953" d="M50.12,343.5a22.732,22.732,0,0,0,15.741-5.733l-7.652-5.933A14.4,14.4,0,0,1,36.8,324.3H28.9v6.117A23.75,23.75,0,0,0,50.12,343.5Z" transform="translate(-26.424 -296.02)" fill="#34a853"/>
    <path id="Path_954" data-name="Path 954" d="M10.364,165.209a14.224,14.224,0,0,1,0-9.092V150H2.476a23.767,23.767,0,0,0,0,21.325Z" transform="translate(0 -136.928)" fill="#fbbc04"/>
    <path id="Path_955" data-name="Path 955" d="M50.12,9.381a12.9,12.9,0,0,1,9.109,3.56l6.78-6.78A22.823,22.823,0,0,0,50.12-.017,23.742,23.742,0,0,0,28.9,13.072l7.888,6.117A14.2,14.2,0,0,1,50.12,9.381Z" transform="translate(-26.424 0)" fill="#fd6234"/>
  </g>
</svg>
