<?xml version="1.0" encoding="utf-8"?>
<!-- Generator: Adobe Illustrator 26.5.0, SVG Export Plug-In . SVG Version: 6.00 Build 0)  -->
<svg version="1.1" id="Layer_1" xmlns="http://www.w3.org/2000/svg" xmlns:xlink="http://www.w3.org/1999/xlink" x="0px" y="0px"
	 width="45.8px" height="54px" viewBox="0 0 45.8 54" enable-background="new 0 0 45.8 54" xml:space="preserve">
<g id="Group_2057" transform="translate(-642 -216.565)">
	<g id="Group_2018" transform="translate(-149.188 -389.317)">
		<path id="Path_959" fill="#A55BF8" d="M791.2,658.7c0,0.7,0.7,1.2,1.6,1.2h42.6c0.9,0,1.6-0.5,1.6-1.2v-29.2h-45.8L791.2,658.7z"
			/>
		<path id="Path_960" fill="#A55BF8" d="M826.7,605.9h-33.9c-0.9,0-1.7,0.8-1.6,1.8v22.9H837v-13.4L826.7,605.9z"/>
		<path id="Path_961" fill="#7525D5" d="M825.8,615.3c0,1,0.8,1.8,1.8,1.8l0,0h9.5l-11.2-11.2L825.8,615.3z"/>
		<g>
			
				<rect id="Rectangle_2754_00000113344286258032631160000000346581657496310431_" x="810.4" y="632.9" fill="#FFFFFF" width="2" height="15.5"/>
			
				<rect id="Rectangle_2757_00000017499912296746218160000011329164336945883025_" x="819.2" y="634.7" fill="#FFFFFF" width="2" height="11.8"/>
			
				<rect id="Rectangle_2755_00000029040144043584230320000010151448599004956319_" x="801.6" y="634.7" fill="#FFFFFF" width="2" height="11.8"/>
			
				<rect id="Rectangle_2756_00000114779811262319035640000005522029342194785196_" x="797.2" y="638.2" fill="#FFFFFF" width="2" height="4.9"/>
			
				<rect id="Rectangle_2754_00000128465175993455927610000006279215010019120315_" x="823.6" y="630.3" fill="#FFFFFF" width="2" height="20.7"/>
			
				<rect id="Rectangle_2757_00000029727515321542308000000010669725498733439379_" x="828" y="636.6" fill="#FFFFFF" width="2" height="8"/>
			
				<rect id="Rectangle_2755_00000039833248015532097680000001174548070881275568_" x="814.8" y="630.3" fill="#FFFFFF" width="2" height="20.7"/>
			
				<rect id="Rectangle_2756_00000082357536494542550520000013084876617807594385_" x="806" y="638.2" fill="#FFFFFF" width="2" height="4.9"/>
		</g>
	</g>
</g>
<g>
	<g>
		<path fill="#FFFFFF" d="M10,8.9l5.5-1.7v7.7c0,0.6-0.1,1-0.2,1.3c-0.1,0.3-0.4,0.5-0.7,0.7c-0.4,0.2-0.7,0.3-1.2,0.3
			c-0.5,0-0.9-0.1-1.2-0.4s-0.5-0.7-0.5-1.1c0-0.5,0.2-0.9,0.5-1.2c0.4-0.3,0.8-0.5,1.4-0.5c0.2,0,0.3,0,0.5,0s0.4,0.1,0.7,0.3v-5
			l-4.1,1.3v5.8c0,0.6-0.1,1-0.2,1.3c-0.1,0.3-0.4,0.6-0.8,0.7c-0.4,0.2-0.8,0.3-1.2,0.3c-0.5,0-0.9-0.1-1.2-0.4s-0.4-0.7-0.4-1.1
			c0-0.5,0.2-0.9,0.5-1.2c0.4-0.3,0.8-0.5,1.4-0.5c0.4,0,0.8,0.1,1.2,0.3V8.9z"/>
	</g>
</g>
</svg>
