<?xml version="1.0" encoding="utf-8"?>
<!-- Generator: Adobe Illustrator 26.5.0, SVG Export Plug-In . SVG Version: 6.00 Build 0)  -->
<svg version="1.1" id="Layer_1" xmlns="http://www.w3.org/2000/svg" xmlns:xlink="http://www.w3.org/1999/xlink" x="0px" y="0px"
	 width="45.8px" height="54px" viewBox="0 0 45.8 54" enable-background="new 0 0 45.8 54" xml:space="preserve">
<g id="Group_2057" transform="translate(-642 -216.565)">
	<g id="Group_2018" transform="translate(-149.188 -389.317)">
		<path id="Path_959_00000158732929671190433700000002556608376953362573_" fill="#A55BF8" d="M791.2,658.7c0,0.7,0.7,1.2,1.6,1.2
			h42.6c0.9,0,1.6-0.5,1.6-1.2v-29.2h-45.8L791.2,658.7z"/>
		<path id="Path_960_00000002358148470358087750000001552442697374177966_" fill="#A55BF8" d="M826.7,605.9h-33.9
			c-0.9,0-1.7,0.8-1.6,1.8v22.9H837v-13.4L826.7,605.9z"/>
		<path id="Path_961_00000021806153874369694520000004532016695379160976_" fill="#7525D5" d="M825.8,615.3c0,1,0.8,1.8,1.8,1.8l0,0
			h9.5l-11.2-11.2L825.8,615.3z"/>
		<path fill="#FFFFFF" d="M828.2,650v-3.9h1.8v-11h-1.8v-3.9h1.8v-1h-32.8v1h1.8v3.9h-1.8v11h1.8v3.9h-1.8v1H830v-1H828.2z
			 M805.4,650h-3.3v-3.9h3.3V650z M805.4,635.1h-3.3v-3.9h3.3V635.1z M811.9,650h-3.3v-3.9h3.3V650z M811.9,635.1h-3.3v-3.9h3.3
			V635.1z M818.4,650h-3.3v-3.9h3.3V650z M818.4,635.1h-3.3v-3.9h3.3V635.1z M824.9,650h-3.3v-3.9h3.3V650z M824.9,635.1h-3.3v-3.9
			h3.3V635.1z"/>
	</g>
	<path fill="#FFFFFF" d="M657.3,228.1l-7.8-4.5c-0.6-0.4-1.4,0.1-1.4,0.8v9.1c0,0.7,0.8,1.2,1.4,0.8l7.8-4.5
		C657.9,229.4,657.9,228.5,657.3,228.1z"/>
</g>
</svg>
