<svg xmlns="http://www.w3.org/2000/svg" xmlns:xlink="http://www.w3.org/1999/xlink" width="28.73" height="28.701" viewBox="0 0 28.73 28.701">
  <defs>
    <linearGradient id="linear-gradient" x1="0.106" y1="0.674" x2="1" y2="0.601" gradientUnits="objectBoundingBox">
      <stop offset="0" stop-color="#0480fe"/>
      <stop offset="0.713" stop-color="#d315af"/>
      <stop offset="1" stop-color="#f305a3"/>
    </linearGradient>
  </defs>
  <path id="Path_50" data-name="Path 50" d="M181.595,69.3a.772.772,0,0,1-.726-1.038l3.564-9.767a.77.77,0,0,1,.179-.282l13.244-13.244,1.093,1.093-12.3,12.3,2.023,2.023,12.3-12.3,1.093,1.093-12.3,12.3,2.023,2.023L204,51.285l1.093,1.093L191.942,65.53a.767.767,0,0,1-.284.18l-9.8,3.539A.771.771,0,0,1,181.595,69.3Zm2.051-4.14-.758,2.079,2.084-.753Zm.584-1.6,2.348,2.348,3.982-1.438-4.881-4.881ZM206.5,50.689a.771.771,0,0,1-.547-.227L199.685,44.2a.773.773,0,0,1,0-1.093l1.68-1.681a2.817,2.817,0,0,1,2-.828h0a2.814,2.814,0,0,1,2,.828l3.351,3.351h0a2.841,2.841,0,0,1,0,4.008l-1.681,1.68A.77.77,0,0,1,206.5,50.689Zm-5.173-7.039,5.173,5.173,1.134-1.134a1.3,1.3,0,0,0,0-1.822l-3.351-3.351a1.291,1.291,0,0,0-1.822,0Z" transform="translate(-180.822 -40.595)" fill="url(#linear-gradient)"/>
</svg>
