<?xml version="1.0" encoding="utf-8"?>
<!-- Generator: Adobe Illustrator 26.5.0, SVG Export Plug-In . SVG Version: 6.00 Build 0)  -->
<svg version="1.1" id="Layer_1" xmlns="http://www.w3.org/2000/svg" xmlns:xlink="http://www.w3.org/1999/xlink" x="0px" y="0px"
	 width="31.7px" height="20px" viewBox="0 0 31.7 20" enable-background="new 0 0 31.7 20" xml:space="preserve">
<g>
	<path fill="#48B862" d="M7.4,7.3c1.5,0,2.3,0.3,3.4,1.4l6,6C17,14.9,17,15,17,15.1c0,0,0,0.1,0,0.1c0,0,0,0.1,0,0.1
		c0,0.1-0.1,0.2-0.2,0.3l-4.1,4.1c-0.2,0.2-0.2,0.2-0.3,0.2c0,0-0.1,0-0.1,0s-0.1,0-0.1,0c-0.1,0-0.2-0.1-0.3-0.2L0.2,8.2
		C-0.1,7.9,0,7.3,0.5,7.3L7.4,7.3L7.4,7.3z"/>
	<path fill="#48B862" d="M24.3,0c-1.5,0-2.3,0.3-3.4,1.4l-6,6c-0.2,0.2-0.2,0.2-0.2,0.3c0,0,0,0.1,0,0.1c0,0,0,0.1,0,0.1
		c0,0.1,0.1,0.2,0.2,0.3l4.1,4.1c0.2,0.2,0.2,0.2,0.3,0.2c0,0,0.1,0,0.1,0c0,0,0.1,0,0.1,0c0.1,0,0.2-0.1,0.3-0.2L31.6,0.9
		C31.9,0.5,31.8,0,31.2,0L24.3,0L24.3,0z"/>
</g>
<text transform="matrix(1 0 0 1 2845.8652 2846.05)" font-family="'MyriadPro-Regular'" font-size="12px">710px</text>
</svg>
