<?xml version="1.0" encoding="utf-8"?>
<!-- Generator: Adobe Illustrator 24.1.2, SVG Export Plug-In . SVG Version: 6.00 Build 0)  -->
<svg version="1.1" id="Layer_1" xmlns="http://www.w3.org/2000/svg" xmlns:xlink="http://www.w3.org/1999/xlink" x="0px" y="0px"
	 width="35.2px" height="31.9px" viewBox="0 0 35.2 31.9" style="enable-background:new 0 0 35.2 31.9;" xml:space="preserve">
<linearGradient id="SVGID_1_" gradientUnits="userSpaceOnUse" x1="0" y1="15.9561" x2="35.2157" y2="15.9561">
	<stop  offset="0" style="stop-color:#0480FE"/>
	<stop  offset="1" style="stop-color:#F305A3"/>
</linearGradient>
<path style="fill:url(#SVGID_1_);" d="M35.2,20.9c0-2-0.2-4-0.7-5.9c0-0.2-0.1-0.4-0.1-0.6l0-0.1c-0.3-1.9-0.4-3.8-0.4-5.7l0-0.9
	l-0.7-0.5c-0.5-0.3-1-0.5-1.6-0.5c-0.2,0-0.5,0-0.7,0.1l0,0l0,0c-0.8,0.3-1.6,0.8-2.1,1.4l-0.1-0.1c-0.5-0.3-1-0.5-1.6-0.5
	c-0.2,0-0.5,0-0.7,0.1l0,0l0,0c-0.8,0.3-1.5,0.7-2,1.3l-3.6-3.6c-0.6-0.5-1.2-0.8-2-0.8c-0.7,0-1.4,0.3-1.9,0.8l0,0l0,0
	c-0.3,0.3-0.5,0.6-0.6,1l0,0c-0.6-0.5-1.2-0.8-2-0.8s-1.4,0.3-1.9,0.8l0,0l0,0c-0.3,0.3-0.6,0.7-0.7,1.1c-0.4-0.2-0.8-0.3-1.2-0.3
	c-0.8,0-1.5,0.3-2,0.9c-0.8,0.9-1,2.1-0.5,3.1c-0.4,0.1-0.8,0.3-1.1,0.6l0,0l0,0c-1.1,1.1-1.1,2.8,0,3.9l1,1c-0.4,0.1-0.7,0.4-1,0.6
	c-1.1,1.1-1.1,2.8,0,3.9l8.1,8.1l0,0c1.7,1.5,3.8,2.3,6.1,2.3c1.5,0,2.9-0.3,4.2-1c0.1,0,0.3,0,0.4,0c1.5,0,3-0.4,4.4-1.1
	c0.2-0.1,0.5-0.2,0.7-0.4l0.1-0.1c0.2-0.1,0.4-0.3,0.6-0.4c0.1-0.1,0.2-0.1,0.2-0.2l0.1,0l0.1,0c0.1-0.1,0.2-0.2,0.4-0.3
	c0.3-0.2,0.5-0.4,0.7-0.6C34.5,25.9,35.4,23.4,35.2,20.9z M30.3,27.6c-0.2,0.1-0.3,0.2-0.5,0.3c0,0-0.1,0-0.1,0.1
	c-0.2,0.1-0.4,0.2-0.6,0.3c-0.3,0.2-0.7,0.3-1,0.5c0,0,0.1-0.1,0.1-0.1c1.8-1.8,2.7-4.3,2.5-6.8c0-2-0.2-4-0.7-5.9
	c0-0.2-0.1-0.4-0.1-0.6l0-0.1c-0.2-1.4-0.4-2.9-0.4-4.3c0-0.1,0.1-0.3,0.1-0.4c0-0.1,0-0.1,0.1-0.2c0-0.1,0-0.1,0.1-0.2
	c0-0.1,0.1-0.2,0.1-0.3c0.3-0.7,0.9-1.3,1.6-1.5c0.1,0,0.2,0,0.3,0c0.2,0,0.5,0.1,0.7,0.2c-0.1,2,0.1,4,0.4,6c0,0.1,0,0.1,0,0.2
	c0,0.2,0.1,0.4,0.1,0.7c0.4,1.8,0.7,3.7,0.7,5.6c0.2,2.1-0.6,4.1-2,5.6c-0.2,0.2-0.4,0.4-0.6,0.5c-0.1,0.1-0.2,0.2-0.4,0.3
	C30.5,27.5,30.4,27.5,30.3,27.6z M15.7,28.3l-7.9-7.9c-0.4-0.4-0.4-1.2,0-1.6c0.2-0.2,0.5-0.3,0.8-0.3c0.3,0,0.6,0.1,0.8,0.3
	l4.5,4.5c0.2,0.2,0.4,0.2,0.6,0.2c0.2,0,0.4-0.1,0.6-0.2c0.3-0.3,0.3-0.8,0-1.2l-7.2-7.2c-0.4-0.4-0.4-1.2,0-1.6
	C8,13,8.3,12.9,8.6,12.9s0.6,0.1,0.8,0.3l5.5,5.5c0.2,0.2,0.4,0.2,0.6,0.2c0.2,0,0.4-0.1,0.6-0.2c0.3-0.3,0.3-0.8,0-1.2l-6.6-6.6
	C9.1,10.6,9,9.9,9.5,9.5c0.2-0.2,0.5-0.4,0.8-0.4c0.3,0,0.6,0.1,0.8,0.3c0,0,0,0,0.1,0.1l6.6,6.6c0.2,0.2,0.4,0.2,0.6,0.2
	s0.4-0.1,0.6-0.2c0.3-0.3,0.3-0.8,0-1.1l-5.5-5.5c-0.4-0.4-0.4-1.2,0-1.6c0.2-0.2,0.5-0.3,0.8-0.3s0.6,0.1,0.8,0.3l8.6,8.6
	c0.1,0.1,0.2,0.1,0.2,0.2c0,0,0.1,0,0.1,0c0.1,0,0.1,0,0.2,0c0,0,0,0,0.1,0c0,0,0.1,0,0.1,0c0,0,0,0,0.1,0c0.4-0.1,0.7-0.5,0.7-0.9
	c0,0,0,0,0,0c0-0.2-0.1-0.5-0.1-0.7c0-0.1,0-0.2,0-0.3c0-0.1,0-0.2,0-0.3c0-0.1,0-0.3,0-0.4c0-0.1,0-0.1,0-0.2c0-0.2,0-0.3,0-0.5
	v-0.1c0-0.6,0.1-1.1,0.2-1.7c0-0.1,0-0.1,0.1-0.2c0-0.1,0-0.1,0.1-0.2c0-0.1,0.1-0.2,0.1-0.3c0.3-0.7,0.9-1.3,1.6-1.5
	c0.1,0,0.2,0,0.3,0c0.2,0,0.5,0.1,0.7,0.2c-0.1,2,0.1,4,0.4,6c0,0.1,0,0.1,0,0.2c0,0.2,0.1,0.4,0.1,0.7c0.4,1.8,0.7,3.7,0.7,5.6
	c0.2,2.1-0.6,4.1-2,5.6c-0.2,0.2-0.4,0.4-0.6,0.5c-0.1,0.1-0.2,0.2-0.4,0.3c-0.1,0.1-0.2,0.1-0.2,0.2c-0.2,0.1-0.3,0.2-0.5,0.3
	c0,0-0.1,0-0.1,0.1c-0.2,0.1-0.4,0.2-0.6,0.3c-1.1,0.6-2.4,0.9-3.6,0.9C19,30.3,17.1,29.6,15.7,28.3L15.7,28.3z M17.9,6.7
	c0.2-0.2,0.5-0.3,0.8-0.3s0.6,0.1,0.8,0.3l4,4c0,0.1,0,0.1-0.1,0.2c0,0.1-0.1,0.2-0.1,0.3l0,0l0,0c-0.2,0.7-0.2,1.4-0.2,2v0.1
	c0,0.1,0,0.1,0,0.2l-5.2-5.2C17.4,7.9,17.4,7.2,17.9,6.7z M6.2,6.2C6,6.3,5.8,6.4,5.6,6.4C5.4,6.4,5.2,6.3,5,6.2L2.6,3.7
	c-0.3-0.3-0.3-0.8,0-1.1c0.2-0.2,0.4-0.3,0.6-0.3c0.2,0,0.4,0.1,0.6,0.2L6.2,5C6.5,5.3,6.5,5.8,6.2,6.2C6.2,6.2,6.2,6.2,6.2,6.2z
	 M5.5,9.5c0,0.2-0.1,0.4-0.2,0.6c-0.1,0.2-0.4,0.3-0.6,0.3l-3.9,0h0C0.4,10.4,0,10,0,9.5V9.5C0,9,0.4,8.7,0.8,8.7l3.9,0l0,0
	C5.2,8.6,5.5,9,5.5,9.5L5.5,9.5z M8.8,4.8L8.5,0.9C8.5,0.4,8.8,0,9.3,0c0,0,0,0,0,0c0.5,0,0.9,0.3,0.9,0.7l0.3,3.9
	c0,0.4-0.3,0.8-0.8,0.9H9.7H9.6C9.2,5.5,8.8,5.2,8.8,4.8L8.8,4.8z"/>
</svg>
