<svg xmlns="http://www.w3.org/2000/svg" xmlns:xlink="http://www.w3.org/1999/xlink" width="165.876" height="165.876" viewBox="0 0 165.876 165.876">
  <g id="Group_2465" data-name="Group 2465" transform="translate(-877 -362.888)">
    <g transform="translate(877 362.888)" >
      <path d="M165.876,82.938A82.938,82.938,0,1,1,82.938,0a82.939,82.939,0,0,1,82.938,82.938" fill="#ced8f5"/>
    </g>
    <g transform="translate(873 362.888)">
      <g transform="translate(5.407 54.797)" opacity="0.9">
        <g transform="matrix(0.883, 0.469, -0.469, 0.883, 18.345, 0)">
            <path d="M1.8,13.02A1.789,1.789,0,0,1,.189,11.992a1.894,1.894,0,0,1,.8-2.5L18.926.2a1.765,1.765,0,0,1,2.4.833,1.892,1.892,0,0,1-.8,2.5L2.6,12.825a1.746,1.746,0,0,1-.8.2" transform="translate(3.041 12.122)" fill="#06141a"/>
            <path d="M14.514,4.147H2.073A2.073,2.073,0,1,1,2.073,0H14.514a2.073,2.073,0,1,1,0,4.147" transform="translate(1.755 -0.319)" fill="#06141a"/>
            <path d="M1.829,13.2a1.8,1.8,0,0,1-1.143-.413A1.923,1.923,0,0,1,.4,10.137L7.725.709A1.8,1.8,0,0,1,10.3.412a1.923,1.923,0,0,1,.286,2.649L3.261,12.49a1.8,1.8,0,0,1-1.432.709" transform="translate(19.797 24.563)" fill="#06141a"/>
        </g>
      </g>
      <g transform="matrix(0.891, -0.454, 0.454, 0.891, 82.938, 21.992)" opacity="0.9">
        <g id="Group_2097" data-name="Group 2097">
          <path d="M2.077,14.515a2.074,2.074,0,0,1-.929-3.929L21.882.218A2.074,2.074,0,0,1,23.736,3.93L3,14.3a2.079,2.079,0,0,1-.925.218" transform="translate(6.378 12.6)" fill="#06141a"/>
          <path d="M14.514,4.147H2.073A2.073,2.073,0,1,1,2.073,0H14.514a2.073,2.073,0,0,1,0,4.147" transform="translate(12.6 35.409)" fill="#06141a"/>
          <path d="M2.072,14.514A2.073,2.073,0,0,1,.454,11.144L8.748.777a2.073,2.073,0,0,1,3.239,2.59L3.693,13.734a2.065,2.065,0,0,1-1.621.78" transform="translate(0.159 0.16)" fill="#06141a"/>
        </g>
      </g>
      <g transform="translate(45.456 39.076)" opacity="0.9">
        <path d="M63.469,114.379c-8.978,0-16.791-6.133-22.59-17.732L24.291,63.471C23.271,61.427,22,58.885,22,56.322c0-3.129,2.544-7.214,6.193-8.076a6.059,6.059,0,0,1,.86-.133l-2.689-5.376c-1.319-2.642-1.113-7.114,2.463-10.689a7.034,7.034,0,0,1,4.163-1.986c-.869-3.55-.141-5.967.8-7.489A7.811,7.811,0,0,1,40.661,19a8.526,8.526,0,0,1,7.96,5.076,8.926,8.926,0,0,1,6.554-3,8.5,8.5,0,0,1,8.074,5.294L81.91,63.689c.079.133.18.292.292.446.29-.7.618-1.835.9-2.8.3-1.028.634-2.2,1.068-3.5,2.443-7.326,7.224-11.879,12.476-11.879,5.445,0,8.294,3.131,8.294,6.22a2.062,2.062,0,0,1-.22.929c-3.7,7.4-6,18.17-6,28.1,0,30.782-26.98,33.175-35.249,33.175M29.518,52.239a1.647,1.647,0,0,0-.371.044c-1.545.365-3,2.586-3,4.039,0,1.584.987,3.556,1.854,5.294L44.588,94.791c5.123,10.245,11.477,15.441,18.881,15.441,27.063,0,31.1-18.186,31.1-29.028,0-10.284,2.353-21.468,6.16-29.385-.3-.885-1.711-1.717-4.087-1.717-3.307,0-6.739,3.635-8.543,9.044-.413,1.238-.734,2.353-1.016,3.334-.972,3.371-1.812,6.283-4.956,6.283-1.752,0-3.077-1.7-3.879-3.131L59.54,28.223c-.788-1.584-1.717-3-4.365-3a4.819,4.819,0,0,0-3.581,1.746,2.716,2.716,0,0,0-.763,1.526L65.323,57.469a2.074,2.074,0,0,1-3.709,1.856L45.026,26.149c-.852-1.615-1.8-3-4.365-3a3.8,3.8,0,0,0-3.34,1.6c-1.014,1.644-.634,4.5,1.041,7.823l.006.017L52.882,61.616a2.074,2.074,0,0,1-3.709,1.856L34.658,34.443c-.025-.056-.2-.187-.558-.245a2.825,2.825,0,0,0-2.341.782c-2.252,2.252-2.227,4.815-1.686,5.9L44.588,69.909a2.074,2.074,0,0,1-3.709,1.856L32.585,55.178c-.568-1.138-1.686-2.938-3.067-2.938" transform="translate(-21.84 -18.681)" fill="#06141a"/>
        <path d="M43.11,28.5a4.152,4.152,0,0,1,.429-.605,4.809,4.809,0,0,1,3.579-1.744c2.65,0,3.577,1.418,4.367,3L65.215,56.6c.135-.433.267-.867.423-1.335A22.892,22.892,0,0,1,67.3,51.493l-12.1-24.2A8.5,8.5,0,0,0,47.118,22,8.82,8.82,0,0,0,41.1,24.465Z" transform="translate(-1.343 -15.461)" fill="#06141a"/>
        <path d="M88.725,34a10.21,10.21,0,0,0-6.4,2.463,64.378,64.378,0,0,0-5.376,19.181c1.064-1.155,1.615-3.048,2.214-5.119.282-.981.6-2.1,1.016-3.336,1.8-5.41,5.235-9.042,8.543-9.042,2.376,0,3.786.829,4.087,1.717-3.807,7.916-6.16,19.1-6.16,29.385,0,10.842-4.039,29.028-31.1,29.028A15.322,15.322,0,0,1,47.534,96c-1.727.156-3.247.2-4.425.2a17.017,17.017,0,0,1-2.142-.149c4.334,4.188,9.25,6.37,14.583,6.37,8.269,0,35.249-2.393,35.249-33.175,0-9.93,2.3-20.7,6-28.1a2.078,2.078,0,0,0,.218-.927c0-3.092-2.849-6.22-8.294-6.22" transform="translate(-1.48 -2.579)" fill="#06141a"/>
      </g>
      <path d="M27.371,50.093a1.647,1.647,0,0,0-.371.044c-1.545.365-3,2.586-3,4.039,0,1.584.987,3.556,1.854,5.294L42.441,92.644c5.123,10.245,11.477,15.441,18.881,15.441,27.063,0,31.1-18.186,31.1-29.028,0-10.284,2.353-21.468,6.16-29.385-.3-.885-1.711-1.717-4.087-1.717-3.307,0-6.739,3.635-8.543,9.044-.413,1.238-.734,2.353-1.016,3.334-.972,3.371-1.812,6.283-4.956,6.283-1.752,0-3.077-1.7-3.879-3.131L57.393,26.076c-.788-1.584-1.717-3-4.365-3a4.819,4.819,0,0,0-3.581,1.746,2.716,2.716,0,0,0-.763,1.526L63.176,55.322a2.074,2.074,0,0,1-3.709,1.856L42.879,24c-.852-1.615-1.8-3-4.365-3a3.8,3.8,0,0,0-3.34,1.6c-1.014,1.644-.634,4.5,1.041,7.823l.006.017L50.735,59.469a2.074,2.074,0,0,1-3.709,1.856L32.512,32.3c-.025-.056-.2-.187-.558-.245a2.825,2.825,0,0,0-2.341.782c-2.252,2.252-2.227,4.815-1.686,5.9L42.441,67.763a2.074,2.074,0,0,1-3.709,1.856L30.438,53.031c-.568-1.138-1.686-2.938-3.067-2.938" transform="translate(25.763 22.542)" fill="#fff"/>
    </g>
  </g>
</svg>
