<svg xmlns="http://www.w3.org/2000/svg" xmlns:xlink="http://www.w3.org/1999/xlink" width="165.876" height="165.876" viewBox="0 0 165.876 165.876">
  <g transform="translate(-877 -362.453)">
    <g transform="translate(877 362.453)">
      <path d="M165.876,82.938A82.938,82.938,0,1,1,82.938,0a82.939,82.939,0,0,1,82.938,82.938" fill="#ced8f5"/>
    </g>
    <rect width="74" height="57" transform="translate(923 429.5)" fill="#fff"/>
    <g transform="translate(920.461 391.988)">
      <path d="M8.187,43.055H4.181A4.185,4.185,0,0,0,0,47.236v52.837a4.186,4.186,0,0,0,4.181,4.181H74.9a4.186,4.186,0,0,0,4.181-4.181V47.236A4.185,4.185,0,0,0,74.9,43.055H70.893m-52.51,0H12.146m54.787,0H60.7m-3.961,0H22.343M75.12,100.073a.222.222,0,0,1-.222.222H4.181a.222.222,0,0,1-.222-.222V47.236a.222.222,0,0,1,.222-.222H74.9a.222.222,0,0,1,.222.222Z" transform="translate(0 -7.448)" fill="#313131"/>
      <path d="M46.393,66.41a6.773,6.773,0,0,0-3.36,12.656l-1.654,9.908a.818.818,0,0,0,.819.819h8.391a.818.818,0,0,0,.819-.819l-1.654-9.908a6.773,6.773,0,0,0-3.36-12.656" transform="translate(-6.853 -11.488)" fill="#313131"/>
      <path d="M68.739,39.283H64.6V26.464a22.329,22.329,0,1,0-44.658,0V39.283H15.811V26.464a26.464,26.464,0,0,1,52.928,0Z" transform="translate(-2.735 0)" fill="#313131"/>
    </g>
    <path d="M19346,13969.91v-10.4" transform="translate(-8347.354 22426.672) rotate(-103)" fill="none" stroke="#313131" stroke-linecap="round" stroke-width="3"/>
    <path d="M19346,13969.91v-10.4" transform="translate(-21230.488 -8455.498) rotate(-14)" fill="none" stroke="#313131" stroke-linecap="round" stroke-width="3"/>
    <path d="M19346,13972.076v-12.566" transform="translate(-19925.496 12053.457) rotate(-65)" fill="none" stroke="#313131" stroke-linecap="round" stroke-width="3"/>
  </g>
</svg>
