<?xml version="1.0" encoding="utf-8"?>
<!-- Generator: Adobe Illustrator 27.5.0, SVG Export Plug-In . SVG Version: 6.00 Build 0)  -->
<svg version="1.1"
	 id="Layer_2_00000061451749423826445850000011807894717663012006_" xmlns:rdf="http://www.w3.org/1999/02/22-rdf-syntax-ns#" xmlns:sodipodi="http://sodipodi.sourceforge.net/DTD/sodipodi-0.dtd" xmlns:inkscape="http://www.inkscape.org/namespaces/inkscape" xmlns:svg="http://www.w3.org/2000/svg" xmlns:dc="http://purl.org/dc/elements/1.1/" xmlns:cc="http://creativecommons.org/ns#" inkscape:version="1.0 (4035a4fb49, 2020-05-01)" sodipodi:docname="Microsoft 365.svg"
	 xmlns="http://www.w3.org/2000/svg" xmlns:xlink="http://www.w3.org/1999/xlink" x="0px" y="0px" width="123.6px" height="20px"
	 viewBox="0 0 123.6 20" enable-background="new 0 0 123.6 20" xml:space="preserve">
<sodipodi:namedview  bordercolor="#666666" borderopacity="1" fit-margin-bottom="0" fit-margin-left="0" fit-margin-right="0" fit-margin-top="0" gridtolerance="10" guidetolerance="10" id="namedview29" inkscape:current-layer="Layer_2" inkscape:cx="860.8994" inkscape:cy="103.48595" inkscape:pageopacity="0" inkscape:pageshadow="2" inkscape:window-height="705" inkscape:window-maximized="1" inkscape:window-width="1366" inkscape:window-x="-8" inkscape:window-y="-8" inkscape:zoom="0.555" objecttolerance="10" pagecolor="#ffffff" showgrid="false">
	</sodipodi:namedview>
<g id="g971">
	<g id="g949">
		<g id="g904">
			<rect id="rect20" y="0" fill="#F25022" width="9.5" height="9.5"/>
			<rect id="rect22" x="10.5" fill="#7FBA00" width="9.5" height="9.5"/>
			<rect id="rect24" y="10.5" fill="#00A4EF" width="9.5" height="9.5"/>
			<rect id="rect26" x="10.5" y="10.5" fill="#FFB900" width="9.5" height="9.5"/>
		</g>
		<g id="g927">
			<path id="path2" fill="#737373" d="M33.1,11.5l-0.6,1.6h0c-0.1-0.4-0.3-0.9-0.5-1.6l-3-7.5H26v12h1.9V8.6c0-0.5,0-1,0-1.6
				c0-0.3,0-0.6-0.1-0.8h0c0.1,0.5,0.2,0.8,0.3,1l3.6,8.7h1.4l3.6-8.8c0.1-0.2,0.2-0.6,0.2-0.9h0c0,0.9-0.1,1.7-0.1,2.2V16H39V4
				h-2.8L33.1,11.5z"/>
			<rect id="rect4" x="40.9" y="7.4" fill="#737373" width="2" height="8.6"/>
			<path id="path6" fill="#737373" d="M41.9,3.7c-0.3,0-0.6,0.1-0.9,0.3c-0.2,0.2-0.4,0.5-0.4,0.8c0,0.3,0.1,0.6,0.4,0.8
				c0.2,0.2,0.5,0.3,0.9,0.3c0.3,0,0.6-0.1,0.9-0.3c0.2-0.2,0.4-0.5,0.4-0.8c0-0.3-0.1-0.6-0.4-0.8C42.6,3.9,42.3,3.7,41.9,3.7"/>
			<path id="path8" fill="#737373" d="M50.1,7.3c-0.4-0.1-0.8-0.1-1.1-0.1c-0.9,0-1.8,0.2-2.5,0.6c-0.7,0.4-1.2,1-1.6,1.7
				c-0.4,0.7-0.6,1.5-0.6,2.5c0,0.8,0.2,1.6,0.5,2.2c0.4,0.7,0.9,1.2,1.5,1.5c0.6,0.4,1.4,0.5,2.2,0.5c1,0,1.8-0.2,2.4-0.6l0,0v-1.9
				L51,13.8c-0.3,0.2-0.6,0.4-1,0.5c-0.4,0.1-0.7,0.2-1,0.2c-0.8,0-1.4-0.2-1.9-0.7c-0.5-0.5-0.7-1.2-0.7-2c0-0.9,0.2-1.6,0.7-2.1
				c0.5-0.5,1.1-0.8,1.9-0.8c0.7,0,1.3,0.2,1.9,0.7L51,9.6v-2l0,0C50.8,7.5,50.5,7.4,50.1,7.3"/>
			<path id="path10" fill="#737373" d="M56.7,7.3c-0.5,0-1,0.2-1.4,0.5C55,8,54.8,8.4,54.6,8.9h0V7.4h-2V16h2v-4.4
				c0-0.7,0.2-1.4,0.5-1.8c0.3-0.5,0.8-0.7,1.3-0.7c0.2,0,0.4,0,0.6,0.1c0.2,0.1,0.4,0.1,0.5,0.2l0.1,0.1v-2l0,0
				C57.3,7.3,57.1,7.3,56.7,7.3"/>
			<path id="path12" fill="#737373" d="M62.2,7.2c-1.4,0-2.5,0.4-3.3,1.2c-0.8,0.8-1.2,2-1.2,3.4c0,1.3,0.4,2.4,1.2,3.2
				c0.8,0.8,1.8,1.2,3.2,1.2c1.4,0,2.5-0.4,3.3-1.3c0.8-0.8,1.2-2,1.2-3.3c0-1.4-0.4-2.5-1.1-3.2C64.6,7.6,63.6,7.2,62.2,7.2
				 M63.8,13.8c-0.4,0.5-1,0.7-1.7,0.7c-0.7,0-1.3-0.2-1.7-0.7c-0.4-0.5-0.6-1.2-0.6-2.1c0-0.9,0.2-1.6,0.6-2.1
				c0.4-0.5,1-0.7,1.7-0.7c0.7,0,1.3,0.2,1.7,0.7c0.4,0.5,0.6,1.2,0.6,2.1C64.4,12.6,64.2,13.3,63.8,13.8"/>
			<path id="path14" fill="#737373" d="M71,10.9c-0.6-0.3-1-0.5-1.2-0.6c-0.2-0.2-0.2-0.4-0.2-0.7c0-0.2,0.1-0.5,0.3-0.6
				c0.2-0.2,0.5-0.2,0.9-0.2c0.3,0,0.7,0.1,1,0.2c0.3,0.1,0.7,0.2,0.9,0.4l0.1,0.1V7.6l0,0c-0.2-0.1-0.5-0.2-0.9-0.3
				c-0.4-0.1-0.7-0.1-1-0.1c-1,0-1.8,0.2-2.4,0.7c-0.6,0.5-0.9,1.1-0.9,1.9c0,0.4,0.1,0.8,0.2,1.1c0.1,0.3,0.3,0.6,0.6,0.8
				c0.3,0.2,0.7,0.5,1.2,0.7c0.5,0.2,0.8,0.4,1,0.5c0.2,0.1,0.4,0.3,0.5,0.4c0.1,0.1,0.1,0.3,0.1,0.5c0,0.6-0.4,0.9-1.3,0.9
				c-0.3,0-0.7-0.1-1.1-0.2c-0.4-0.1-0.8-0.3-1.1-0.6l-0.1-0.1v2l0,0c0.3,0.1,0.7,0.2,1.1,0.3c0.4,0.1,0.8,0.1,1.2,0.1
				c1,0,1.9-0.2,2.5-0.7c0.6-0.5,0.9-1.1,0.9-2c0-0.6-0.2-1.1-0.5-1.5C72.4,11.6,71.8,11.3,71,10.9"/>
			<path id="path16" fill="#737373" d="M78.6,7.2c-1.4,0-2.5,0.4-3.3,1.2c-0.8,0.8-1.2,2-1.2,3.4c0,1.3,0.4,2.4,1.2,3.2
				c0.8,0.8,1.8,1.2,3.2,1.2c1.4,0,2.5-0.4,3.3-1.3c0.8-0.8,1.2-2,1.2-3.3c0-1.4-0.4-2.5-1.1-3.2C81,7.6,80,7.2,78.6,7.2 M80.2,13.8
				c-0.4,0.5-1,0.7-1.7,0.7c-0.7,0-1.3-0.2-1.7-0.7c-0.4-0.5-0.6-1.2-0.6-2.1c0-0.9,0.2-1.6,0.6-2.1c0.4-0.5,1-0.7,1.7-0.7
				c0.7,0,1.3,0.2,1.7,0.7c0.4,0.5,0.6,1.2,0.6,2.1C80.8,12.6,80.6,13.3,80.2,13.8"/>
			<path id="path18" fill="#737373" d="M93.7,9V7.4h-2V4.8l-0.1,0l-1.9,0.6l0,0v1.9h-3V6.3c0-0.5,0.1-0.9,0.3-1.1
				c0.2-0.3,0.5-0.4,0.9-0.4c0.3,0,0.6,0.1,0.9,0.2l0.1,0V3.3l0,0c-0.3-0.1-0.7-0.2-1.1-0.2c-0.6,0-1.1,0.1-1.6,0.4
				c-0.5,0.3-0.8,0.6-1.1,1.1c-0.3,0.5-0.4,1-0.4,1.6v1.2h-1.4V9h1.4V16h2V9h3v4.4c0,1.8,0.9,2.7,2.5,2.7c0.3,0,0.6,0,0.9-0.1
				c0.3-0.1,0.5-0.1,0.6-0.2l0,0v-1.7l-0.1,0.1c-0.1,0.1-0.2,0.1-0.4,0.2c-0.2,0-0.3,0.1-0.4,0.1c-0.4,0-0.7-0.1-0.9-0.3
				c-0.2-0.2-0.3-0.6-0.3-1.1V9H93.7z"/>
		</g>
	</g>
	<g id="g932">
		<path id="path876" fill="#737373" d="M98.5,15.5v-1.8c0.8,0.6,1.7,0.9,2.7,0.9c0.8,0,1.5-0.2,1.9-0.5c0.5-0.4,0.7-0.8,0.7-1.5
			c0-1.4-1.1-2-3.2-2h-0.9V9.1h0.9c1.9,0,2.8-0.6,2.8-1.9c0-1.2-0.7-1.8-2.2-1.8c-0.8,0-1.6,0.3-2.3,0.9V4.5
			c0.8-0.5,1.8-0.7,2.9-0.7c1.1,0,2,0.3,2.6,0.8c0.7,0.5,1,1.2,1,2c0,1.6-0.8,2.6-2.5,3v0c0.9,0.1,1.6,0.4,2.1,0.9
			c0.5,0.5,0.8,1.2,0.8,1.9c0,1.1-0.4,1.9-1.2,2.6c-0.8,0.7-1.9,1-3.3,1C100.2,16.2,99.3,16,98.5,15.5L98.5,15.5z"/>
		<path id="path878" fill="#737373" d="M115.3,12.1c0,0.6-0.1,1.1-0.3,1.6c-0.2,0.5-0.5,0.9-0.8,1.3c-0.4,0.4-0.8,0.6-1.3,0.8
			c-0.5,0.2-1,0.3-1.6,0.3c-0.6,0-1.2-0.1-1.7-0.3c-0.5-0.2-1-0.6-1.3-1c-0.4-0.5-0.7-1-0.9-1.7c-0.2-0.7-0.3-1.5-0.3-2.4
			c0-1.1,0.1-2.1,0.4-2.9c0.3-0.9,0.6-1.6,1.1-2.1c0.5-0.6,1-1,1.7-1.3s1.3-0.4,2.1-0.4c0.5,0,0.9,0,1.3,0.1
			c0.4,0.1,0.7,0.1,0.9,0.2v1.7c-0.3-0.1-0.6-0.3-0.9-0.4c-0.3-0.1-0.7-0.1-1.1-0.1c-0.5,0-0.9,0.1-1.3,0.3
			c-0.4,0.2-0.8,0.5-1.1,0.8c-0.3,0.4-0.5,0.8-0.7,1.3c-0.2,0.5-0.3,1.1-0.3,1.8h0.1c0.3-0.4,0.6-0.7,1.1-0.9c0.4-0.2,1-0.3,1.6-0.3
			c0.5,0,1,0.1,1.4,0.3c0.4,0.2,0.8,0.4,1.1,0.7c0.3,0.3,0.5,0.7,0.7,1.2C115.3,11.1,115.3,11.6,115.3,12.1L115.3,12.1z M113.3,12.3
			c0-0.3,0-0.7-0.1-0.9c-0.1-0.3-0.2-0.5-0.4-0.7c-0.2-0.2-0.4-0.4-0.6-0.5c-0.3-0.1-0.5-0.2-0.9-0.2c-0.3,0-0.6,0.1-0.9,0.2
			c-0.3,0.1-0.5,0.3-0.6,0.5c-0.2,0.2-0.3,0.4-0.4,0.7c-0.1,0.2-0.1,0.5-0.1,0.8c0,0.3,0,0.6,0.1,0.9c0.1,0.3,0.2,0.6,0.4,0.8
			c0.2,0.2,0.4,0.4,0.6,0.6c0.3,0.2,0.6,0.2,0.9,0.2c0.3,0,0.6-0.1,0.9-0.2c0.3-0.1,0.5-0.3,0.6-0.5c0.2-0.2,0.3-0.4,0.4-0.7
			C113.3,12.9,113.3,12.6,113.3,12.3L113.3,12.3z"/>
		<path id="path880" fill="#737373" d="M116.4,15.7v-1.9c0.8,0.5,1.6,0.8,2.4,0.8c0.8,0,1.5-0.2,2-0.6c0.5-0.4,0.8-1,0.8-1.7
			c0-0.7-0.3-1.2-0.8-1.6c-0.5-0.4-1.2-0.6-2.2-0.6c-0.3,0-1,0-2,0.1l0.4-6.3h6v1.6h-4.4l-0.2,3c0.4,0,0.7,0,1.1,0
			c1.3,0,2.3,0.3,3,1c0.7,0.6,1.1,1.5,1.1,2.7c0,1.2-0.4,2.1-1.2,2.8c-0.8,0.7-1.9,1.1-3.3,1.1C117.9,16.2,117,16,116.4,15.7
			L116.4,15.7z"/>
	</g>
</g>
</svg>
