<?xml version="1.0" encoding="utf-8"?>
<!-- Generator: Adobe Illustrator 27.5.0, SVG Export Plug-In . SVG Version: 6.00 Build 0)  -->
<svg version="1.1" id="Layer_1" xmlns="http://www.w3.org/2000/svg" xmlns:xlink="http://www.w3.org/1999/xlink" x="0px" y="0px"
	 width="99.8px" height="20px" viewBox="0 0 99.8 20" enable-background="new 0 0 99.8 20" xml:space="preserve">
<g>
	<defs>
		<rect id="SVGID_1_" width="99.8" height="20"/>
	</defs>
	<clipPath id="SVGID_00000179628065284834320480000010611205148958998916_">
		<use xlink:href="#SVGID_1_"  overflow="visible"/>
	</clipPath>
	<g clip-path="url(#SVGID_00000179628065284834320480000010611205148958998916_)">
		<path d="M59.5,17.3h3.2v-5c0-3,2.6-2.9,4-2.7V6.3c-2.2-0.2-3.5,0.4-4.1,1.6h-0.1l0-1.6h-3.1L59.5,17.3L59.5,17.3z"/>
		<path d="M76,17.3h2l3.3-4.2l2.8,4.2h3.7l-4.4-6.4l3.8-4.6h-3.7l-4.4,5.5h-0.1l0-11.1H76V17.3z"/>
		<path d="M40.1,17.3h2.5l3.8-7.1l3.7,7.1h2.5l5.6-11h-3.7l-3.4,7l-3.3-7H45l-3.4,7.1l-3.3-7.1h-3.7L40.1,17.3z"/>
		<path d="M71,4.7c1.1,0,2-0.9,2-2c0-1.1-0.9-2-2-2c-1.1,0-2,0.9-2,2C69,3.8,69.9,4.7,71,4.7z"/>
		<path d="M72.5,6.3h-3.1v11h3.1V6.3z"/>
		<path fill="#08CF65" d="M7.4,7.2c1.5,0,2.2,0.3,3.3,1.4l5.9,5.9c0.2,0.2,0.2,0.2,0.2,0.4c0,0,0,0.1,0,0.1c0,0,0,0.1,0,0.1
			c0,0.1-0.1,0.2-0.2,0.4l-4,4.1c-0.2,0.2-0.2,0.2-0.3,0.2c0,0-0.1,0-0.1,0c0,0-0.1,0-0.1,0c-0.1,0-0.2-0.1-0.3-0.2L0.2,8.1
			C-0.1,7.8,0,7.2,0.5,7.2H7.4z"/>
		<path fill="#08CF65" d="M24,0c-1.5,0-2.2,0.3-3.3,1.4l-5.9,5.9c-0.2,0.2-0.2,0.2-0.2,0.4c0,0,0,0.1,0,0.1c0,0,0,0.1,0,0.1
			c0,0.1,0.1,0.2,0.2,0.4l4,4.1c0.2,0.2,0.2,0.2,0.3,0.2c0,0,0.1,0,0.1,0c0,0,0.1,0,0.1,0c0.1,0,0.2-0.1,0.3-0.2L31.2,0.8
			C31.6,0.5,31.4,0,30.9,0L24,0L24,0z"/>
		<path d="M96.7,13.7c-0.4,0.6-1.2,1.3-2.5,1.3c-1.6,0-2.7-0.9-2.9-2.2h8.5c0-0.2,0-0.6,0-0.9c0-3.2-2.3-5.8-5.7-5.8
			c-3.3,0-5.9,2.5-5.9,5.8c0,3.2,2.5,5.8,5.9,5.8c2.5,0,4-1,5-2.3L96.7,13.7z M93.9,8.6c1.5,0,2.5,0.8,2.8,2h-5.6
			C91.4,9.4,92.4,8.6,93.9,8.6z"/>
	</g>
</g>
</svg>
