<?xml version="1.0" encoding="utf-8"?>
<!-- Generator: Adobe Illustrator 23.0.6, SVG Export Plug-In . SVG Version: 6.00 Build 0)  -->
<svg version="1.1" id="icon-designers" xmlns="http://www.w3.org/2000/svg" xmlns:xlink="http://www.w3.org/1999/xlink" x="0px" y="0px"
	 width="20.2px" height="30px" viewBox="0 0 20.2 30" style="enable-background:new 0 0 20.2 30;" xml:space="preserve">
	 
<linearGradient id="dashboard-svg-gradient-icon-designers" gradientUnits="userSpaceOnUse" x1="0" y1="0" x2="30" y2="30">
	<stop offset="0" class="svg-gradient-start" />
	<stop offset="1" class="svg-gradient-end" />
</linearGradient>
<path style="fill:url(#dashboard-svg-gradient-icon-designers);" d="M20.1,13.3l-4.6-7.5l2.2-4.4c0.1-0.3,0.1-0.7,0-0.9C17.5,0.2,17.2,0,16.9,0h-14
	C2.5,0,2.1,0.2,2,0.5s-0.2,0.7,0,1l2.6,4.3l-4.5,7.5c-0.2,0.3-0.2,0.6,0,0.9l7.2,15.3C7.4,29.8,7.8,30,8.1,30H12
	c0.4,0,0.7-0.2,0.9-0.6l7.3-15.3C20.3,13.9,20.3,13.6,20.1,13.3z M15.3,1.9l-1.5,2.9H6.3L4.5,1.9H15.3z M10.1,14.5
	c-0.8,0-1.5-0.7-1.5-1.5s0.7-1.5,1.5-1.5c0.8,0,1.5,0.7,1.5,1.5S10.9,14.5,10.1,14.5z M11.4,28.1H11V16.3c1.4-0.4,2.4-1.7,2.4-3.2
	c0-1.9-1.5-3.4-3.4-3.4s-3.4,1.5-3.4,3.4c0,1.5,1,2.8,2.4,3.2v11.8H8.8L2.1,13.8l4.2-7.1h7.6l4.3,7.1L11.4,28.1z"/>
</svg>
