<?xml version="1.0" encoding="utf-8"?>
<!-- Generator: Adobe Illustrator 23.0.6, SVG Export Plug-In . SVG Version: 6.00 Build 0)  -->
<svg version="1.1" id="icon-sales" xmlns="http://www.w3.org/2000/svg" xmlns:xlink="http://www.w3.org/1999/xlink" x="0px" y="0px"
	 width="27.7px" height="23px" viewBox="0 0 27.7 23" style="enable-background:new 0 0 27.7 23;" xml:space="preserve">

<linearGradient id="dashboard-svg-gradient-icon-sales" gradientUnits="userSpaceOnUse" x1="0" y1="0" x2="30" y2="30">
	<stop offset="0" class="svg-gradient-start" />
	<stop offset="1" class="svg-gradient-end" />
</linearGradient>
<path style="fill:url(#dashboard-svg-gradient-icon-sales);" d="M26.8,3.8h-7.2V0.8c0-0.5-0.4-0.8-0.8-0.8H8.9C8.4,0,8.1,0.4,8.1,0.8v2.9H0.8
	C0.4,3.8,0,4.1,0,4.6v17.6C0,22.6,0.4,23,0.8,23h26c0.5,0,0.8-0.4,0.8-0.8V4.6C27.7,4.1,27.3,3.8,26.8,3.8z M9.7,1.7H18v2.1H9.7V1.7
	z M26,21.3H1.7V5.4H26V21.3z"/>
</svg>
