<?xml version="1.0" encoding="utf-8"?>
<!-- Generator: Adobe Illustrator 24.2.3, SVG Export Plug-In . SVG Version: 6.00 Build 0)  -->
<svg version="1.1" xmlns="http://www.w3.org/2000/svg" xmlns:xlink="http://www.w3.org/1999/xlink" x="0px" y="0px"
	 width="27.00003px" height="25px" viewBox="0 0 27.00003 25" style="enable-background:new 0 0 27.00003 25;" xml:space="preserve"
	>
<path fill="currentColor" d="M14.81294,9.84692v6.688c0,0.63844-0.51756,1.156-1.156,1.156l0,0c-0.63844,0-1.156-0.51756-1.156-1.156v-6.688
	c0-0.63844,0.51756-1.156,1.156-1.156l0,0C14.29538,8.69092,14.81294,9.20848,14.81294,9.84692z"/>
<path fill="currentColor" d="M14.81294,19.82692L14.81294,19.82692c0,0.63844-0.51756,1.156-1.156,1.156l0,0c-0.63844,0-1.156-0.51756-1.156-1.156l0,0
	c0-0.63844,0.51756-1.156,1.156-1.156l0,0C14.29538,18.67092,14.81294,19.18848,14.81294,19.82692z"/>
<path fill="currentColor" d="M13.50001,3.2703c-0.16833,0-0.58768,0.04693-0.84529,0.48164L2.10689,21.55142
	c-0.26273,0.44336-0.0934,0.83817-0.00841,0.98734c0.085,0.14917,0.33834,0.49613,0.85371,0.49613h21.09565
	c0.51538,0,0.76871-0.34695,0.8537-0.49613c0.085-0.14916,0.25433-0.54398-0.00841-0.98736L14.34531,3.75195
	C14.0877,3.31724,13.66835,3.2703,13.50001,3.2703 M13.50001,1.30518c0.98251,0,1.96502,0.48165,2.53587,1.44494l10.54783,17.79945
	C27.74812,22.51451,26.33188,25,24.04784,25H2.95219c-2.28403,0-3.70028-2.48549-2.53587-4.45041L10.96414,2.75012
	C11.53499,1.78682,12.5175,1.30518,13.50001,1.30518z"/>
</svg>
