<svg xmlns="http://www.w3.org/2000/svg" width="20.387" height="25.591" viewBox="0 0 20.387 25.591">
  
  <g id="icon-workflux" transform="translate(0)">
    <path id="Path_383" d="M216.69,260.585a5.267,5.267,0,0,1-.572.681c-1.749,1.45-3.509,2.885-5.265,4.327-1.256,1.031-2.508,2.068-3.765,3.1-.517.424-.776.422-1.29,0q-4.5-3.7-8.992-7.4c-.673-.555-.67-.917,0-1.469q4.512-3.715,9.028-7.427a.777.777,0,0,1,1.215,0q4.555,3.738,9.1,7.491A4.344,4.344,0,0,1,216.69,260.585Zm-18.567-.035,8.311,6.841,8.333-6.841-8.334-6.819Z" transform="translate(-196.303 -252.103)" fill="currentColor"/>
    <path id="Path_384" d="M206.926,386.127l4.045-3.308q2.4-1.963,4.8-3.926c.443-.362.858-.374,1.127-.047.283.344.187.773-.255,1.137l-9.06,7.453c-.522.429-.758.427-1.286-.007q-4.513-3.709-9.029-7.415c-.275-.225-.5-.482-.387-.839.064-.2.282-.471.44-.477a1.36,1.36,0,0,1,.845.258c1.832,1.471,3.641,2.971,5.458,4.462Z" transform="translate(-196.794 -366.626)" fill="currentColor"/>
    <path id="Path_385" d="M206.752,433.768l7.531-6.184c.439-.36.872-.728,1.319-1.079.421-.331.795-.314,1.086.028s.227.715-.195,1.062q-4.589,3.772-9.185,7.534a.772.772,0,0,1-1.1-.007q-4.588-3.773-9.184-7.535a.732.732,0,0,1-.218-1.07c.26-.332.714-.342,1.137,0q3.934,3.228,7.862,6.465Z" transform="translate(-196.618 -409.767)" fill="currentColor"/>
  </g>
</svg>
