<svg xmlns="http://www.w3.org/2000/svg" width="18.574" height="20.516" viewBox="0 0 18.574 20.516">
  <path id="icon-clients" d="M194.987,294.558a7.753,7.753,0,0,1,1.081-3.864,8.522,8.522,0,0,1,3.477-3.316,8.144,8.144,0,0,1,4.756-.664,7.751,7.751,0,0,1,6.074,4.423,9,9,0,0,1,.853,3.541.575.575,0,0,0,.147.388.484.484,0,0,0,.348.082c.381-.03.425-.377.417-.582a8.917,8.917,0,0,0-2.189-5.74,9.174,9.174,0,0,0-3.359-2.449l-.757-.326.643-.516a5.8,5.8,0,0,0,.645-8.747,5.666,5.666,0,0,0-3.994-1.653h-.068a5.816,5.816,0,0,0-4.122,1.81,5.63,5.63,0,0,0-1.561,4.263,6.012,6.012,0,0,0,2.33,4.318l.6.481-.767.39c-.063.033-.124.064-.185.093a9.063,9.063,0,0,0-5.287,8.079.627.627,0,0,0,.155.48.434.434,0,0,0,.351.1C194.7,295.136,194.97,295.111,194.987,294.558Zm4.731-10.292a4.814,4.814,0,0,1,3.373-8.215h.009a4.806,4.806,0,0,1,3.377,8.219,4.739,4.739,0,0,1-3.369,1.417h0A4.773,4.773,0,0,1,199.718,284.266Z" transform="translate(-193.817 -274.885)" fill="currentColor" />
</svg>
