<?xml version="1.0" encoding="utf-8"?>
<!-- Generator: Adobe Illustrator 24.2.3, SVG Export Plug-In . SVG Version: 6.00 Build 0)  -->
<svg version="1.1" xmlns="http://www.w3.org/2000/svg" xmlns:xlink="http://www.w3.org/1999/xlink" x="0px" y="0px"
	 width="25px" height="25px" viewBox="0 0 25 25" style="enable-background:new 0 0 25 25;" xml:space="preserve">
	<path fill="currentColor" d="M10.97656,16.13281c-0.25586,0-0.51172-0.09766-0.70703-0.29297L7.3125,12.88281
		c-0.39062-0.39062-0.39062-1.02344,0-1.41406s1.02344-0.39062,1.41406,0l2.25,2.25l4.81738-4.81689
		c0.39062-0.39062,1.02344-0.39062,1.41406,0s0.39062,1.02344,0,1.41406l-5.52441,5.52393
		C11.48828,16.03516,11.23242,16.13281,10.97656,16.13281z"/>
	<path fill="currentColor" d="M12.5,2C18.28972,2,23,6.71028,23,12.5S18.28972,23,12.5,23S2,18.28972,2,12.5S6.71028,2,12.5,2 M12.5,0
		C5.60742,0,0,5.60742,0,12.5S5.60742,25,12.5,25S25,19.39258,25,12.5S19.39258,0,12.5,0L12.5,0z"/>
</svg>
