<svg xmlns="http://www.w3.org/2000/svg" xmlns:xlink="http://www.w3.org/1999/xlink" width="16.185" height="21.806" viewBox="0 0 16.185 21.806">
  
  <path id="icon-projects" data-name="Path 388" d="M61.19,35.609v1.1a11.25,11.25,0,0,1-1.214-.008c-.56-.062-.683.172-.676.7.028,2.1.011,4.208.011,6.312v9.207H73.235c.011-.2.031-.39.031-.584,0-4.984-.007-9.968.014-14.952,0-.548-.155-.735-.691-.677a11.054,11.054,0,0,1-1.146.007V35.623c.794,0,1.587-.037,2.373.026.195.016.4.333.532.55.074.118.02.319.02.482q0,8.15,0,16.3c0,.957-.1,1.052-1.049,1.052H59.224c-.881,0-1.021-.14-1.022-1.034q0-8.181,0-16.362c0-.878.151-1.025,1.037-1.028C59.87,35.607,60.5,35.609,61.19,35.609Zm7.843,2.8c1.285-.006,1.648-.366,1.656-1.632q0-.643,0-1.286c-.008-1.231-.329-1.573-1.554-1.55a.828.828,0,0,1-.877-.54,2.208,2.208,0,0,0-3.831-.122,1.161,1.161,0,0,1-1.227.685c-.908-.04-1.3.372-1.328,1.281-.014.551-.006,1.1,0,1.654.007,1.1.405,1.5,1.53,1.509.959.007,1.919,0,2.879,0C67.2,38.409,68.114,38.412,69.033,38.408ZM63.08,35.036c.422,0,.84-.01,1.257,0,.5.016.8-.145.863-.706a1.13,1.13,0,0,1,2.223-.134c.1.742.512.891,1.144.841.3-.024.6,0,.944,0v2.2H63.08ZM64.368,44.7q-1.284,0-2.569,0c-.374,0-.663.139-.67.544s.311.53.665.559c.1.008.2,0,.306,0q4.189,0,8.378,0a1.467,1.467,0,0,0,.651-.1.605.605,0,0,0,.306-.454.8.8,0,0,0-.353-.5,1.077,1.077,0,0,0-.537-.053q-2.11,0-4.22,0Zm-.3-3.889c-.4,0-.8.057-.806.532s.381.558.784.557q3.3,0,6.6,0c.387,0,.79-.027.8-.532s-.377-.556-.775-.555c-1.1,0-2.2,0-3.3,0S65.172,40.82,64.072,40.813Zm3.575,8.9c.4,0,.791-.054.8-.537s-.374-.552-.778-.551q-2.872.008-5.743,0c-.4,0-.783.04-.8.53s.375.559.772.558c.957,0,1.914,0,2.872,0S66.69,49.712,67.647,49.716Z" transform="translate(-58.201 -32.227)" fill="currentColor"/>
</svg>
