<?xml version="1.0" encoding="utf-8"?>
<!-- Generator: Adobe Illustrator 23.0.6, SVG Export Plug-In . SVG Version: 6.00 Build 0)  -->
<svg version="1.1" id="icon-devs" xmlns="http://www.w3.org/2000/svg" xmlns:xlink="http://www.w3.org/1999/xlink" x="0px" y="0px"
	 width="33.4px" height="32px" viewBox="0 0 33.4 32" style="enable-background:new 0 0 33.4 32;" xml:space="preserve">
	 
<linearGradient id="dashboard-svg-gradient-icon-devs" gradientUnits="userSpaceOnUse" x1="0" y1="0" x2="30" y2="30">
	<stop offset="0" class="svg-gradient-start" />
	<stop offset="1" class="svg-gradient-end" />
</linearGradient>
<path style="fill:url(#dashboard-svg-gradient-icon-devs);" d="M15.4,19.1c0-2.2-1.8-3.9-3.9-3.9S7.5,17,7.5,19.1s1.8,3.9,3.9,3.9S15.4,21.3,15.4,19.1z
	 M11.5,21.6c-1.3,0-2.4-1.1-2.4-2.4c0-1.3,1.1-2.4,2.4-2.4s2.4,1.1,2.4,2.4C13.9,20.5,12.8,21.6,11.5,21.6z M12.7,19.1
	c0,0.7-0.6,1.3-1.3,1.3c-0.7,0-1.3-0.6-1.3-1.3c0-0.7,0.6-1.3,1.3-1.3C12.2,17.9,12.7,18.4,12.7,19.1z M22.2,15.2
	c-2.2,0-3.9,1.8-3.9,3.9s1.8,3.9,3.9,3.9s3.9-1.8,3.9-3.9S24.4,15.2,22.2,15.2z M22.2,21.6c-1.3,0-2.4-1.1-2.4-2.4
	c0-1.3,1.1-2.4,2.4-2.4c1.3,0,2.4,1.1,2.4,2.4C24.6,20.5,23.5,21.6,22.2,21.6z M23.5,19.1c0,0.7-0.6,1.3-1.3,1.3
	c-0.7,0-1.3-0.6-1.3-1.3c0-0.7,0.6-1.3,1.3-1.3C22.9,17.9,23.5,18.4,23.5,19.1z M29.5,14.2v-2.2c0-1-0.8-1.9-1.9-1.9h-2
	c-0.7-0.9-1.5-1.7-2.4-2.3l2-2.8C25.4,5,25.7,5,25.9,5c1.4,0,2.5-1.1,2.5-2.5S27.3,0,25.9,0s-2.5,1.1-2.5,2.5c0,0.6,0.2,1.1,0.6,1.6
	l-2,2.9c-1.6-0.8-3.4-1.3-5.2-1.3c-1.8,0-3.5,0.4-5.1,1.2L9.7,4.2c0.4-0.4,0.7-1,0.7-1.7C10.4,1.1,9.3,0,7.9,0S5.4,1.1,5.4,2.5
	S6.5,5,7.9,5C8.1,5,8.3,5,8.5,5l1.9,2.7c-1,0.7-1.8,1.5-2.5,2.4h-2c-1,0-1.9,0.8-1.9,1.9v2.2C2.1,14.7,0,16.3,0,18.3v3.6
	c0,2,2.1,3.6,3.9,4.1v1.8c0,2.4,1.9,4.3,4.3,4.3h17c2.4,0,4.3-1.9,4.3-4.3V26c1.8-0.6,3.9-2.1,3.9-4.1v-3.6
	C33.4,16.3,31.3,14.7,29.5,14.2z M25.9,1.5c0.6,0,1,0.5,1,1s-0.5,1-1,1s-1-0.5-1-1S25.4,1.5,25.9,1.5z M6.9,2.5c0-0.6,0.5-1,1-1
	s1,0.5,1,1s-0.5,1-1,1S6.9,3.1,6.9,2.5z M16.7,7.1c2.6,0,5.1,1.1,6.9,2.9H9.8C11.6,8.2,14.1,7.1,16.7,7.1z M1.5,21.9v-3.6
	c0-1,1.2-2,2.4-2.5v8.6C2.7,23.9,1.5,22.9,1.5,21.9z M28,27.7c0,1.5-1.2,2.8-2.8,2.8h-17c-1.5,0-2.8-1.2-2.8-2.8v-1.4V13.9v-1.9
	c0-0.2,0.2-0.4,0.4-0.4h21.8c0.2,0,0.4,0.2,0.4,0.4v1.9v12.4V27.7z M31.9,21.9c0,1-1.2,2-2.4,2.5v-8.6c1.3,0.5,2.4,1.5,2.4,2.5V21.9
	z M20.7,26.3c0.2,0.4,0.1,0.8-0.3,1c-1.2,0.7-2.5,1.1-3.8,1.1c-1.3,0-2.6-0.4-3.6-1.1c-0.3-0.2-0.4-0.7-0.2-1s0.7-0.4,1-0.2
	c1.5,1.1,3.8,1.1,5.7,0C20.1,25.9,20.5,26,20.7,26.3z"/>
</svg>
