<?xml version="1.0" encoding="utf-8"?>
<!-- Generator: Adobe Illustrator 23.0.6, SVG Export Plug-In . SVG Version: 6.00 Build 0)  -->
<svg version="1.1" id="Layer_1" xmlns="http://www.w3.org/2000/svg" xmlns:xlink="http://www.w3.org/1999/xlink" x="0px" y="0px"
	 width="20.1px" height="32px" viewBox="0 0 20.1 32" style="enable-background:new 0 0 20.1 32;" xml:space="preserve">
<g>
	<linearGradient id="SVGID_1_" gradientUnits="userSpaceOnUse" x1="0" y1="16" x2="20.0997" y2="16">
		<stop  offset="0" style="stop-color:#0480FE"/>
		<stop  offset="1" style="stop-color:#F305A3"/>
	</linearGradient>
	<path style="fill:url(#SVGID_1_);" d="M3.8,32c-0.1,0-0.2,0-0.3-0.1c-0.3-0.2-0.5-0.5-0.4-0.9l3.3-12.9H0.8c-0.3,0-0.5-0.1-0.6-0.3
		C0,17.6,0,17.4,0.1,17.1l7-16c0.1-0.3,0.4-0.4,0.6-0.5L18.9,0c0.3,0,0.5,0.1,0.7,0.4c0.1,0.2,0.2,0.5,0,0.8l-6.4,11.1h6.1
		c0.3,0,0.6,0.2,0.7,0.4c0.1,0.3,0.1,0.6-0.1,0.8L4.3,31.7C4.2,31.9,4,32,3.8,32z M1.9,16.7h5.4c0.2,0,0.5,0.1,0.6,0.3
		c0.1,0.2,0.2,0.4,0.1,0.7L5.3,28.3l12.4-14.5h-5.8c-0.3,0-0.5-0.1-0.7-0.4c-0.1-0.2-0.1-0.5,0-0.8l6.3-11L8.2,2.2L1.9,16.7z"/>
</g>
</svg>
