<?xml version="1.0" encoding="utf-8"?>
<!-- Generator: Adobe Illustrator 23.0.6, SVG Export Plug-In . SVG Version: 6.00 Build 0)  -->
<svg version="1.1" id="icon-projects" xmlns="http://www.w3.org/2000/svg" xmlns:xlink="http://www.w3.org/1999/xlink" x="0px" y="0px"
	 width="28.6px" height="24px" viewBox="0 0 28.6 24" style="enable-background:new 0 0 28.6 24;" xml:space="preserve">
<path style="fill:url(#dashboard-svg-gradient-icon);" d="M24,19.4H4.6c-0.5,0-0.9-0.4-0.9-0.9V5.5c0-0.5,0.4-0.9,0.9-0.9h1c0.5,0,0.9,0.4,0.9,0.9
	S6.1,6.5,5.6,6.5H5.5v11.1h17.5v-0.9c0-0.5,0.4-0.9,0.9-0.9s0.9,0.4,0.9,0.9v1.8C24.9,19,24.5,19.4,24,19.4z M28.6,13.8V0.9
	c0-0.5-0.4-0.9-0.9-0.9H8.3C7.8,0,7.4,0.4,7.4,0.9v12.9c0,0.5,0.4,0.9,0.9,0.9h19.4C28.2,14.8,28.6,14.4,28.6,13.8z M9.2,1.8h17.5
	v11.1H9.2V1.8z M21.2,23.1v-1.8c0-0.5-0.4-0.9-0.9-0.9s-0.9,0.4-0.9,0.9v0.9H1.8V11.1c0.5,0,0.9-0.4,0.9-0.9c0-0.5-0.4-0.9-0.9-0.9
	H0.9C0.4,9.2,0,9.6,0,10.2v12.9C0,23.6,0.4,24,0.9,24h19.4C20.8,24,21.2,23.6,21.2,23.1z"/>
</svg>
