<?xml version="1.0" encoding="utf-8"?>
<!-- Generator: Adobe Illustrator 23.0.6, SVG Export Plug-In . SVG Version: 6.00 Build 0)  -->
<svg version="1.1" id="Free_icons" xmlns="http://www.w3.org/2000/svg" xmlns:xlink="http://www.w3.org/1999/xlink" x="0px" y="0px"
	 width="27.8px" height="26px" viewBox="0 0 27.8 26" style="enable-background:new 0 0 27.8 26;" xml:space="preserve">
<linearGradient id="SVGID_1_" gradientUnits="userSpaceOnUse" x1="0" y1="13" x2="27.7931" y2="13">
	<stop  offset="0" style="stop-color:#0480FE"/>
	<stop  offset="1" style="stop-color:#F305A3"/>
</linearGradient>
<path style="fill:url(#SVGID_1_);" d="M23.3,26H17c-0.5,0-0.9-0.4-0.9-0.9v-7.2h-4.5v7.2c0,0.5-0.4,0.9-0.9,0.9H4.5
	c-0.5,0-0.9-0.4-0.9-0.9v-9.9c0-0.5,0.4-0.9,0.9-0.9s0.9,0.4,0.9,0.9v9h4.5V17c0-0.5,0.4-0.9,0.9-0.9H17c0.5,0,0.9,0.4,0.9,0.9v7.2
	h4.5v-9c0-0.5,0.4-0.9,0.9-0.9s0.9,0.4,0.9,0.9v9.9C24.2,25.6,23.8,26,23.3,26z M26.9,14.8c-0.2,0-0.5-0.1-0.6-0.3L13.9,2.2
	L1.5,14.5c-0.3,0.4-0.9,0.4-1.3,0c-0.4-0.4-0.4-0.9,0-1.3l13-13c0.3-0.4,0.9-0.4,1.3,0l13,13c0.4,0.4,0.4,0.9,0,1.3
	C27.4,14.7,27.1,14.8,26.9,14.8z M22.4,6.7c-0.5,0-0.9-0.4-0.9-0.9V2.7h-3.1c-0.5,0-0.9-0.4-0.9-0.9s0.4-0.9,0.9-0.9h4
	c0.5,0,0.9,0.4,0.9,0.9v4C23.3,6.3,22.9,6.7,22.4,6.7z"/>
</svg>
