<?xml version="1.0" encoding="utf-8"?>
<!-- Generator: Adobe Illustrator 23.0.6, SVG Export Plug-In . SVG Version: 6.00 Build 0)  -->
<svg version="1.1" id="icon-paper-clip" xmlns="http://www.w3.org/2000/svg" xmlns:xlink="http://www.w3.org/1999/xlink" x="0px" y="0px"
	 width="25px" height="23px" viewBox="0 0 25 23" style="enable-background:new 0 0 25 23;" xml:space="preserve">
<path class="fill-neutral" d="M24.3,3.3c-1.1-2.2-3-3.3-5.4-3.3c-1.7,0-3.2,0.6-4.6,2c-3.1,3.1-6.2,6.3-9.2,9.3
	c-1.1,1.2-2.3,2.3-3.4,3.5c-0.7,0.7-1.2,1.5-1.5,2.3C-0.2,18.5,0,19.8,0.7,21c0.8,1.2,2.1,2,3.5,2c0.1,0,0.1,0,0.2,0
	c1.5,0,2.8-0.6,4-1.8c1-1,1.9-1.9,2.9-2.9c0.8-0.8,1.6-1.7,2.5-2.5c0.5-0.5,1-1,1.5-1.5c1.1-1.1,2.2-2.2,3.3-3.3
	c0.6-0.7,1-1.5,0.9-2.3C19.4,7.7,19,7,18.3,6.4c-1.2-1-2.8-0.8-4,0.4c-2,2-4.1,4.1-6,6.1L6.1,15c-0.3,0.3-0.5,0.6-0.4,0.8
	c0,0.2,0.1,0.3,0.2,0.5c0.5,0.5,1.1-0.1,1.3-0.3c0.6-0.6,1.3-1.3,1.9-1.9c2-2,4.1-4.1,6.1-6.2c0.3-0.3,0.5-0.5,0.8-0.6
	c0.6-0.3,1.3,0,1.7,0.5c0.4,0.6,0.3,1.4-0.2,2l-0.3,0.3c-3.3,3.4-6.7,6.9-10.1,10.3c-0.8,0.8-1.9,1.2-3.1,1
	c-1.2-0.2-2.4-1.4-2.5-2.6c-0.1-0.9,0.2-1.8,0.9-2.5c1.1-1.2,2.2-2.3,3.3-3.4L6,12.6c2.8-2.9,5.8-5.9,9.5-9.7c1-1,2.3-1.5,3.7-1.4
	c1.3,0.1,2.6,0.7,3.3,1.8c1.5,2.1,1.4,4.7-0.5,6.5c-2.2,2.2-4.3,4.4-6.5,6.6c-1.4,1.4-2.8,2.9-4.2,4.3c0,0-0.1,0.1-0.1,0.1
	c-0.1,0.1-0.2,0.2-0.3,0.4c-0.1,0.4,0,0.7,0.1,0.8c0.2,0.2,0.5,0.1,0.8,0.1l0.1,0c0.1,0,0.2-0.1,0.3-0.2c0,0,0,0,0.1-0.1
	c0.9-1,1.9-1.9,2.8-2.9c2.6-2.6,5.3-5.4,7.9-8.1C24.4,9.5,25,8,25,6C25.1,5.2,24.8,4.2,24.3,3.3z"/>
</svg>
