<?xml version="1.0" encoding="utf-8"?>
<!-- Generator: Adobe Illustrator 23.0.6, SVG Export Plug-In . SVG Version: 6.00 Build 0)  -->
<svg version="1.1" id="Layer_1" xmlns="http://www.w3.org/2000/svg" xmlns:xlink="http://www.w3.org/1999/xlink" x="0px" y="0px"
	 width="194.4px" height="58px" viewBox="0 0 194.4 58" style="enable-background:new 0 0 194.4 58;" xml:space="preserve">
<linearGradient id="SVGID_1_" gradientUnits="userSpaceOnUse" x1="0" y1="29" x2="194.3924" y2="29">
	<stop  offset="0" style="stop-color:#0480FE"/>
	<stop  offset="1" style="stop-color:#F305A3"/>
</linearGradient>
<path style="fill:url(#SVGID_1_);" d="M19.1,1c0-0.5,0.3-0.8,0.8-0.8H32c4.7,0,7.2,2.5,7.2,7.2v12.3c0,4.7-2.5,7.2-7.2,7.2h-6v12.7
	c0,0.5-0.3,0.8-0.8,0.8h-5.2c-0.5,0-0.8-0.3-0.8-0.8V1z M30.4,20.4c1.4,0,2-0.8,2-2V8.9c0-1.3-0.7-2-2-2h-4.4v13.5H30.4z M46.8,7.5
	c0-4.7,2.5-7.2,7.2-7.2h5.6c4.7,0,7.2,2.5,7.2,7.2v25.8c0,4.7-2.5,7.2-7.2,7.2H54c-4.7,0-7.2-2.5-7.2-7.2V7.5z M58.4,34
	c1.3,0,2-0.7,2-2V8.7c0-1.3-0.7-2-2-2h-2.9c-1.3,0-2,0.7-2,2V32c0,1.4,0.7,2,2,2H58.4z M80.5,0.2c0.5,0,0.8,0.3,0.8,0.8v38.7
	c0,0.5-0.3,0.8-0.8,0.8h-5.2c-0.6,0-0.8-0.3-0.8-0.8V1c0-0.5,0.3-0.8,0.8-0.8H80.5z M109.6,0.2c0.5,0,0.8,0.3,0.8,0.8v38.7
	c0,0.5-0.3,0.8-0.8,0.8h-5c-0.5,0-0.8-0.2-0.9-0.7L96,18.4h-0.3v21.3c0,0.5-0.3,0.8-0.8,0.8h-5.2c-0.5,0-0.8-0.3-0.8-0.8V1
	c0-0.5,0.3-0.8,0.8-0.8h5c0.5,0,0.8,0.2,0.9,0.7l7.7,21.4h0.3V1c0-0.5,0.3-0.8,0.8-0.8H109.6z M136.2,0.2c0.6,0,0.8,0.3,0.8,0.8v5
	c0,0.5-0.3,0.8-0.8,0.8h-5.8v32.8c0,0.6-0.3,0.8-0.8,0.8h-5.2c-0.5,0-0.8-0.3-0.8-0.8V6.9h-5.8c-0.5,0-0.8-0.3-0.8-0.8V1
	c0-0.5,0.3-0.8,0.8-0.8H136.2z M4.3,57.9V51h1.2v6.9H4.3z M18.8,57.9l-3.6-4.9v4.9H14V51h1.2l3.5,4.8V51H20v6.9H18.8z M30.1,57.9
	v-5.8h-2.1V51h5.4v1.1h-2.1v5.8H30.1z M41.5,57.9V51h4.7v1.1h-3.5v1.8h3.4v1.1h-3.4v1.9h3.5v1.1H41.5z M58.4,57.9l-1.5-2.6h-1.2v2.6
	h-1.2V51h3c1.4,0,2.3,0.9,2.3,2.2c0,1.2-0.8,1.9-1.6,2l1.7,2.7H58.4z M58.5,53.1c0-0.7-0.5-1.1-1.2-1.1h-1.7v2.2h1.7
	C58,54.2,58.5,53.8,58.5,53.1z M72.8,57.9l-0.5-1.3h-3.2l-0.5,1.3h-1.4L70,51h1.5l2.7,6.9H72.8z M70.7,52.2l-1.2,3.3H72L70.7,52.2z
	 M81.3,54.4c0-2.1,1.6-3.6,3.6-3.6c1.4,0,2.3,0.7,2.8,1.5l-1,0.5c-0.3-0.6-1-1-1.7-1c-1.4,0-2.4,1-2.4,2.5c0,1.4,1,2.5,2.4,2.5
	c0.7,0,1.4-0.4,1.7-1l1,0.5c-0.5,0.8-1.4,1.6-2.8,1.6C82.9,58,81.3,56.6,81.3,54.4z M97.3,57.9v-5.8h-2.1V51h5.4v1.1h-2.1v5.8H97.3z
	 M108.6,57.9V51h1.2v6.9H108.6z M120.3,57.9l-2.7-6.9h1.4l2.1,5.6l2.1-5.6h1.4l-2.7,6.9H120.3z M132.3,57.9V51h4.7v1.1h-3.5v1.8h3.4
	v1.1h-3.4v1.9h3.5v1.1H132.3z M154.6,39c-0.7,0.4-1,0.9-1,1.7V47c0,0.9,0.5,1.4,1.4,1.4h7.8v-3c0-0.9,0.5-1.4,1.4-1.4h6.9
	c0.9,0,1.4,0.5,1.4,1.4v11.1c0,0.9-0.5,1.4-1.4,1.4h-26c-0.9,0-1.4-0.5-1.4-1.4V35.2c0-1.4,0.5-2,1.9-2.7l17.2-9.3V12.6
	c0-1.9-1.1-2.9-2.9-2.9h-3.5c-2,0-2.9,1-2.9,2.9v5.6c0,0.7-0.4,1.2-1.2,1.2h-7.5c-0.8,0-1.2-0.4-1.2-1.2v-7.7
	c0-6.8,3.6-10.4,10.4-10.4h8.1c6.7,0,10.4,3.6,10.4,10.4v17.1c0,1.4-0.6,2-2,2.7L154.6,39z M193.2,0c0.7,0,1.2,0.4,1.2,1.2v55.5
	c0,0.7-0.4,1.2-1.2,1.2h-7.5c-0.8,0-1.2-0.4-1.2-1.2V11l-4.5,0.6c-0.9,0.1-1.5-0.4-1.5-1.3V3.3c0-0.9,0.4-1.4,1.4-1.5L193.2,0z
	 M10.2,0.3c0.5,0,0.8,0.3,0.8,0.8v38.5c0,0.5-0.3,0.8-0.8,0.8H5c-0.6,0-0.8-0.3-0.8-0.8V8L1.1,8.4C0.4,8.5,0,8.1,0,7.5V2.6
	c0-0.7,0.3-1,1-1.1L10.2,0.3z"/>
</svg>
