<svg xmlns="http://www.w3.org/2000/svg" xmlns:xlink="http://www.w3.org/1999/xlink" width="29" height="29" viewBox="0 0 29 29">
  <defs>
    <linearGradient id="linear-gradient" y1="0.322" x2="1.114" y2="0.328" gradientUnits="objectBoundingBox">
      <stop offset="0" stop-color="#0480fe"/>
      <stop offset="1" stop-color="#f305a3"/>
    </linearGradient>
  </defs>
  <path id="Path_5" data-name="Path 5" d="M235.672,42.867a.961.961,0,0,1-.961.961H207.633a.961.961,0,0,1-.961-.961V15.789a.961.961,0,0,1,1.922,0V41.906h26.118A.961.961,0,0,1,235.672,42.867ZM211.7,35.644a2.95,2.95,0,0,1,2.947-2.947c.086,0,.17.006.253.013l1.9-5.7a.948.948,0,0,1,.049-.11,2.952,2.952,0,1,1,4.5-1.956L226,27.607a2.937,2.937,0,0,1,2.078-.859l.046,0,1.863-5.59a2.94,2.94,0,0,1,1.742-5.307h0a2.947,2.947,0,0,1,.392,5.868,3,3,0,0,1-.3.02l-1.889,5.665a2.955,2.955,0,1,1-4.775,1.932l-4.751-2.711a2.93,2.93,0,0,1-1.74.742.981.981,0,0,1-.044.255l-1.96,5.878a2.945,2.945,0,1,1-4.963,2.144Zm18.823-16.682a1.218,1.218,0,0,0,1.2,1.055,1.27,1.27,0,0,0,.164-.011,1.218,1.218,0,0,0-.161-2.424,1.27,1.27,0,0,0-.164.011A1.217,1.217,0,0,0,230.525,18.962Zm-3.66,10.732a1.217,1.217,0,1,0,1.217-1.217A1.217,1.217,0,0,0,226.865,29.694Zm-9.634-5.262a1.217,1.217,0,1,0,1.217-1.217A1.217,1.217,0,0,0,217.23,24.432Zm-3.8,11.213a1.217,1.217,0,1,0,1.217-1.217A1.217,1.217,0,0,0,213.431,35.644Z" transform="translate(-206.672 -14.828)" fill="url(#linear-gradient)"/>
</svg>
