<svg xmlns="http://www.w3.org/2000/svg" width="18" height="18.028" viewBox="0 0 18 18.028">
  <g id="Group_41" data-name="Group 41" transform="translate(-188.705 -282.529)" opacity="0.499" style="isolation: isolate">
    <path id="Path_43" data-name="Path 43" d="M197.7,300.54h-6.6a2.137,2.137,0,0,1-2.388-2.388q-.009-5.923,0-11.846c0-.557,0-1.114.01-1.67a2.1,2.1,0,0,1,2.161-2.106c1.669.043,3.34.007,5.01.015a.866.866,0,0,1,.872.651.875.875,0,0,1-.465,1.021,1.483,1.483,0,0,1-.589.094c-1.468.007-2.935,0-4.4,0-.617,0-.821.2-.821.817q0,6.379,0,12.757c0,.676.174.841.859.841h12.715c.7,0,.834-.139.834-.851,0-1.493-.006-2.987,0-4.48a.893.893,0,0,1,1.332-.852.876.876,0,0,1,.471.813c.006,1.658.018,3.316,0,4.974a2.187,2.187,0,0,1-2.349,2.224C202.13,300.5,199.914,300.54,197.7,300.54Z" transform="translate(0 0)" fill="currentColor" fill-opacity=".5"/>
    <path id="Path_44" data-name="Path 44" d="M301.093,285.813a5.083,5.083,0,0,1-.324.395c-1.918,1.928-3.834,3.858-5.767,5.771a1.691,1.691,0,0,1-.777.424.834.834,0,0,1-.9-.485.934.934,0,0,1,.113-1.065,3.91,3.91,0,0,1,.277-.294q2.893-2.9,5.789-5.8a2.219,2.219,0,0,1,.325-.227l-.082-.128c-.679,0-1.358.011-2.037,0a.855.855,0,0,1-.842-1.013.8.8,0,0,1,.789-.69q2.241-.017,4.483,0a.8.8,0,0,1,.814.865q.022,2.169,0,4.337a.872.872,0,1,1-1.744-.041c-.009-.66,0-1.319,0-1.979Z" transform="translate(-96.255 -0.147)" fill="currentColor" fill-opacity=".5"/>
  </g>
</svg>
